<?xml version="1.0" encoding="UTF-8"?>
<svg version="1.1" xmlns="http://www.w3.org/2000/svg" width="1022" height="241">
<path d="M0 0 C1.16154259 0.69433716 2.32558994 1.38450248 3.4921875 2.0703125 C5.96866393 3.53296854 8.42893674 5.01929003 10.8828125 6.51953125 C15.34816525 9.23226007 19.89083271 11.80170498 24.4375 14.375 C33.85761574 19.72304007 43.18660294 25.21904661 52.5 30.75 C53.17400848 31.14983093 53.84801697 31.54966187 54.54244995 31.96160889 C56.51870513 33.13448797 58.49392551 34.30908886 60.46875 35.484375 C61.03497574 35.82060883 61.60120148 36.15684265 62.18458557 36.50326538 C63.38647231 37.21997782 64.57373659 37.96157231 65.74824524 38.72232056 C68.10484203 40.13773587 68.10484203 40.13773587 71.28923035 41.22958374 C75.17659339 42.9509242 78.46056444 44.5458342 81 48 C83.65584774 55.46105983 83.10149511 63.88615888 83.11328125 71.6953125 C83.15001459 74.04934129 83.18896517 76.40333642 83.23002625 78.7572937 C83.29875473 83.68898401 83.31495998 88.61769558 83.29907227 93.54980469 C83.28906522 98.59457658 83.36530725 103.62572526 83.5246582 108.66796875 C84.83274915 150.51865034 84.83274915 150.51865034 78.65374756 158.61975098 C73.1481243 163.80122566 67.10353617 166.31677566 59.85809326 168.1925354 C55.82069479 169.3331757 52.53144985 171.29285583 49 173.5 C47.7402703 174.21158722 46.47757056 174.91796224 45.2109375 175.6171875 C39.98074612 178.55964782 34.80525552 181.5957863 29.625 184.625 C12.1814632 194.81874652 12.1814632 194.81874652 4.53900146 199.24822998 C2.84639786 200.2303314 1.1558427 201.2159605 -0.53466797 202.20166016 C-1.56865723 202.80026855 -2.60264648 203.39887695 -3.66796875 204.015625 C-4.57828857 204.54446289 -5.4886084 205.07330078 -6.42651367 205.61816406 C-7.27576416 206.07416992 -8.12501465 206.53017578 -9 207 C-9.8264502 207.44432373 -10.65290039 207.88864746 -11.50439453 208.34643555 C-14 209 -14 209 -16.54174805 208.08813477 C-17.43933838 207.54471436 -18.33692871 207.00129395 -19.26171875 206.44140625 C-20.28458984 205.83554688 -21.30746094 205.2296875 -22.36132812 204.60546875 C-23.45896484 203.93128906 -24.55660156 203.25710937 -25.6875 202.5625 C-26.84845726 201.86786249 -28.01058896 201.17518444 -29.17382812 200.484375 C-31.59105776 199.04679147 -34.00299922 197.6008816 -36.41162109 196.14892578 C-41.89488506 192.85298787 -47.45073182 189.68304195 -53 186.5 C-55.15266383 185.25836726 -57.30500608 184.01617684 -59.45703125 182.7734375 C-63.93155169 180.19175031 -68.40840857 177.61416986 -72.88671875 175.0390625 C-74.59504883 174.05583008 -74.59504883 174.05583008 -76.33789062 173.05273438 C-78.47787488 171.8211516 -80.61844226 170.59058114 -82.75976562 169.36132812 C-84.71503634 168.2354891 -86.65691513 167.08595871 -88.58232117 165.90977478 C-91.07311398 164.51793736 -93.20048477 163.50551334 -95.82783508 162.52284241 C-100.18961608 160.7171194 -104.0192629 158.75312285 -107 155 C-109.83071635 147.46391945 -108.9619929 138.83179255 -108.78125 130.92578125 C-108.77611304 128.55405728 -108.77631746 126.18231627 -108.78161621 123.81059265 C-108.77666517 118.85049495 -108.72075576 113.89448024 -108.62597656 108.93530273 C-108.50672902 102.5819565 -108.4938627 96.23393507 -108.51636505 89.87968159 C-108.52557681 84.98672265 -108.48921079 80.09495913 -108.43797302 75.20229149 C-108.41690295 72.86002284 -108.40750706 70.51761876 -108.41004944 68.17525673 C-108.40464737 64.90121506 -108.34050031 61.63353443 -108.25976562 58.3605957 C-108.26855743 57.39577774 -108.27734924 56.43095978 -108.28640747 55.43690491 C-108.13323543 51.40822205 -108.01000806 48.97363756 -105.02689838 46.09794998 C-102.74177364 44.55633338 -100.45397797 43.25105024 -98 42 C-96.93096436 41.34402832 -95.86192871 40.68805664 -94.76049805 40.01220703 C-93.77090088 39.43325684 -92.78130371 38.85430664 -91.76171875 38.2578125 C-90.62573242 37.59209229 -89.48974609 36.92637207 -88.31933594 36.24047852 C-87.10880767 35.53517532 -85.89819352 34.83001951 -84.6875 34.125 C-83.41303853 33.38020807 -82.13862538 32.63533344 -80.86425781 31.89038086 C-70.85300277 26.04622461 -60.79275001 20.28901561 -50.7199707 14.55175781 C-44.97025831 11.27513281 -39.22598029 7.99153013 -33.52172852 4.63623047 C-32.12775408 3.81725265 -30.7299866 3.00468461 -29.32788086 2.19970703 C-26.47667371 0.54960039 -23.83019557 -1.13463926 -21.24609375 -3.18359375 C-13.24896822 -9.35793946 -7.52200133 -4.75390484 0 0 Z M-15 24 C-14.6330901 27.76082643 -14.0035466 29.99423678 -12 33.25 C-8.0869289 39.74798304 -8.55487257 47.17089818 -10.1875 54.34765625 C-11.44698381 58.45914427 -13.17495585 62.33827147 -14.9765625 66.23828125 C-16.01714305 69.04626006 -16.20517005 71.03583269 -16 74 C-14.35 74.33 -12.7 74.66 -11 75 C-5.95666614 64.53975199 -0.94848692 52.77694646 -2 41 C7.89749176 49.48356437 9.62636545 61.82683512 12 74 C13.65 74 15.3 74 17 74 C17.0272415 72.58344207 17.04650467 71.16672955 17.0625 69.75 C17.07410156 68.96109375 17.08570313 68.1721875 17.09765625 67.359375 C17.00265344 65.06410704 16.62840746 63.20159303 16 61 C15.83242187 60.2884375 15.66484375 59.576875 15.4921875 58.84375 C12.49749219 47.47148935 6.21230031 36.75456479 -3.375 29.8125 C-4.29023438 29.13832031 -5.20546875 28.46414062 -6.1484375 27.76953125 C-9.0472986 25.97064895 -11.7317393 24.93998648 -15 24 Z M-43.4921875 39.8515625 C-48.27732558 46.66976443 -49.53485397 53.8434769 -49 62 C-39.18658571 62.38178989 -30.5806658 62.37165225 -22 57.1875 C-18.74354776 53.62575537 -18.05103685 50.377995 -17.875 45.625 C-17.91625 44.75875 -17.9575 43.8925 -18 43 C-18.66 43 -19.32 43 -20 43 C-20 43.99 -20 44.98 -20 46 C-20.5878125 45.78601563 -21.175625 45.57203125 -21.78125 45.3515625 C-24.00365017 44.76944615 -24.00365017 44.76944615 -25.78125 45.9609375 C-26.3484375 46.42757812 -26.915625 46.89421875 -27.5 47.375 C-29.98467051 49.39661828 -31.83562379 50.40320975 -35 51 C-32.72636365 46.73984179 -29.78348346 43.60433592 -26.3125 40.3125 C-24.48631016 38.57842567 -22.73509182 36.82935827 -21 35 C-21 34.34 -21 33.68 -21 33 C-28.64267077 29.17866461 -38.28614553 34.11280925 -43.4921875 39.8515625 Z M-68.875 89.75 C-78.06641834 101.06251488 -79.17162526 114.01961962 -78 128 C-77.13819365 131.68835256 -75.86517349 134.71832019 -74 138 C-73.67644531 138.639375 -73.35289062 139.27875 -73.01953125 139.9375 C-67.64199571 150.12189384 -59.27646308 156.51026098 -48.4609375 160.2109375 C-35.61883497 163.3146829 -23.15987142 161.97573262 -11.46875 155.625 C-9.60975392 154.47294609 -7.79815794 153.24487857 -6 152 C-7.46580526 148.82166979 -9.28523374 146.17656437 -11.375 143.375 C-19.17626999 132.38821143 -21.69190712 120.66367147 -19.57421875 107.31640625 C-17.62087744 100.01833965 -13.72747875 93.51542862 -10 87 C-19.22611055 79.20479085 -27.36814839 75.53086319 -39.7109375 75.79296875 C-51.18066521 76.8303332 -60.9142143 81.37656019 -68.875 89.75 Z M-6.78125 93.171875 C-13.19484081 102.28923448 -15.74054027 111.28161098 -14.375 122.375 C-12.5809988 132.58428313 -8.32308679 140.64888639 0 147 C10.81970131 153.30233871 20.57219015 155.48777945 33 154 C42.80553109 150.99940032 51.85893846 144.26808794 56.96484375 135.28515625 C61.25115272 125.82292701 62.16000643 116.21360636 59.171875 106.234375 C57.35320093 101.41344531 55.1967118 97.04916828 52 93 C51.34 93 50.68 93 50 93 C49.505 91.515 49.505 91.515 49 90 C42.22520119 84.41733317 34.7846505 80.74446191 26 80 C25.26007813 79.93554688 24.52015625 79.87109375 23.7578125 79.8046875 C11.78473737 79.23089796 0.83764905 83.88216476 -6.78125 93.171875 Z " fill="#DF1F37" transform="translate(222,25)"/>
<path d="M0 0 C0.94399406 0.1065818 0.94399406 0.1065818 1.90705872 0.21531677 C9.68716049 1.01642061 17.38283388 1.12978504 25.19921875 1.09765625 C27.17351616 1.09553383 27.17351616 1.09553383 29.18769836 1.09336853 C32.64816264 1.08959214 36.10858341 1.07980495 39.56903076 1.06866455 C43.11567598 1.05834414 46.66232839 1.05384838 50.20898438 1.04882812 C57.13934053 1.03817712 64.06966816 1.0211611 71 1 C72.95465765 4.9093153 72.44131682 9.75404905 72.625 14.0625 C72.6765625 15.09439453 72.728125 16.12628906 72.78125 17.18945312 C72.82507813 18.16978516 72.86890625 19.15011719 72.9140625 20.16015625 C72.9548291 21.06386963 72.9955957 21.96758301 73.03759766 22.89868164 C73 25 73 25 72 26 C70.00041636 26.04080783 67.99954746 26.04254356 66 26 C65.80664062 25.39671875 65.61328125 24.7934375 65.4140625 24.171875 C65.15367187 23.37265625 64.89328125 22.5734375 64.625 21.75 C64.36976563 20.96109375 64.11453125 20.1721875 63.8515625 19.359375 C63.57054687 18.58078125 63.28953125 17.8021875 63 17 C62.78085937 16.28328125 62.56171875 15.5665625 62.3359375 14.828125 C60.22128353 11.93438799 57.36586429 11.55721069 54 11 C50.68995473 10.62942567 47.38959968 10.44977718 44.0625 10.3125 C43.20720703 10.26544922 42.35191406 10.21839844 41.47070312 10.16992188 C36.02735232 9.91664621 31.57355805 10.30330524 26 11 C26 20.57 26 30.14 26 40 C26.33 39.67 26.66 39.34 27 39 C28.3303125 39.5259375 28.3303125 39.5259375 29.6875 40.0625 C35.34623246 41.73439823 41.23193159 40.64186024 47 40 C47.99 36.7 48.98 33.4 50 30 C51.65 29.67 53.3 29.34 55 29 C56.90849948 30.90849948 56.13059633 34.31478774 56.1328125 36.84375 C56.13376923 37.52804077 56.13472595 38.21233154 56.13571167 38.9173584 C56.1363933 40.36661877 56.13454023 41.81588218 56.13037109 43.26513672 C56.12502252 45.49062928 56.1303166 47.71592001 56.13671875 49.94140625 C56.13605797 51.34635461 56.1347768 52.75130285 56.1328125 54.15625 C56.13168457 55.44337891 56.13055664 56.73050781 56.12939453 58.05664062 C56 61 56 61 55 62 C53.33382885 62.04063832 51.66611905 62.042721 50 62 C49.80664062 61.28972656 49.61328125 60.57945313 49.4140625 59.84765625 C49.15367187 58.92855469 48.89328125 58.00945312 48.625 57.0625 C48.36976563 56.14597656 48.11453125 55.22945312 47.8515625 54.28515625 C47.23339896 51.83254913 47.23339896 51.83254913 45 51 C42.83381332 50.95439607 40.66632738 50.96165792 38.5 51 C32.22222222 51.11111111 32.22222222 51.11111111 30 50 C29.67 50.66 29.34 51.32 29 52 C28.01 52 27.02 52 26 52 C25.97082766 55.87498404 25.95314327 59.74993958 25.9375 63.625 C25.92912109 64.71941406 25.92074219 65.81382813 25.91210938 66.94140625 C25.90888672 68.00488281 25.90566406 69.06835938 25.90234375 70.1640625 C25.89710693 71.13811035 25.89187012 72.1121582 25.88647461 73.11572266 C26.00685578 76.17418112 26.31527594 79.01530536 27 82 C33.99185503 85.49592752 47.73615239 83.79102685 55 81.625 C57.10435795 80.89002753 57.10435795 80.89002753 59 80 C59.72058594 79.68289062 60.44117188 79.36578125 61.18359375 79.0390625 C63.79927556 77.54278 64.04123641 75.81237319 65 73 C65.98482022 70.99248185 66.98152514 68.99065541 68 67 C70.31 67 72.62 67 75 67 C74.55564266 70.96003425 74.09216228 74.91759646 73.625 78.875 C73.43550781 80.56689453 73.43550781 80.56689453 73.2421875 82.29296875 C73.04882812 83.90751953 73.04882812 83.90751953 72.8515625 85.5546875 C72.73635254 86.54968262 72.62114258 87.54467773 72.50244141 88.56982422 C72 91 72 91 70 93 C67.25387573 93.2784729 67.25387573 93.2784729 63.71435547 93.31884766 C63.07032776 93.32889328 62.42630005 93.3389389 61.76275635 93.34928894 C59.63090927 93.38021583 57.49918829 93.39718194 55.3671875 93.4140625 C53.89029854 93.43276656 52.41342035 93.4523394 50.93655396 93.4727478 C47.04695983 93.52415576 43.15733102 93.56373485 39.26757812 93.60089111 C35.29939128 93.64087667 31.33134978 93.69199378 27.36328125 93.7421875 C19.57562041 93.83904926 11.78788948 93.92342095 4 94 C4 94.33 4 94.66 4 95 C2.02 95 0.04 95 -2 95 C-2.125 88.375 -2.125 88.375 -1 85 C-0.36191406 84.93941406 0.27617187 84.87882812 0.93359375 84.81640625 C1.75988281 84.73261719 2.58617187 84.64882812 3.4375 84.5625 C4.26121094 84.48128906 5.08492188 84.40007812 5.93359375 84.31640625 C7.98662025 84.21069185 7.98662025 84.21069185 9 83 C9 82.071875 9 81.14375 9 80.1875 C9 77 9 77 9.5625 75.125 C10.27263314 71.6757819 9.51987685 68.46584569 9 65 C9.66 65 10.32 65 11 65 C10.34 64.01 9.68 63.02 9 62 C8.75708008 59.7668457 8.75708008 59.7668457 8.76953125 57.17578125 C8.77146484 56.22896484 8.77339844 55.28214844 8.77539062 54.30664062 C8.78763672 53.31857422 8.79988281 52.33050781 8.8125 51.3125 C8.81314453 50.34376953 8.81378906 49.37503906 8.81445312 48.37695312 C8.84079868 44.04750044 8.95703672 39.83143972 9.57421875 35.54296875 C9.96629409 32.28047027 9.78962897 31.01701959 9 28 C8.92291277 26.63199181 8.89196391 25.26076408 8.90234375 23.890625 C8.90556641 23.13652344 8.90878906 22.38242188 8.91210938 21.60546875 C8.92048828 20.82816406 8.92886719 20.05085938 8.9375 19.25 C8.94201172 18.45722656 8.94652344 17.66445312 8.95117188 16.84765625 C8.96291435 14.89840492 8.98084854 12.94919262 9 11 C8.37351562 10.90203125 7.74703125 10.8040625 7.1015625 10.703125 C6.28429687 10.55359375 5.46703125 10.4040625 4.625 10.25 C3.81289063 10.11078125 3.00078125 9.9715625 2.1640625 9.828125 C0 9 0 9 -1.2890625 7.109375 C-2 5 -2 5 -2 2 C-1.34 2 -0.68 2 0 2 C0 1.34 0 0.68 0 0 Z " fill="#0B0909" transform="translate(346,62)"/>
<path d="M0 0 C2.41451424 0.84945597 4.30707302 1.09011211 6.83203125 0.64453125 C7.28578125 0.12890625 7.73953125 -0.38671875 8.20703125 -0.91796875 C8.74328125 -1.39234375 9.27953125 -1.86671875 9.83203125 -2.35546875 C12.14203125 -2.02546875 14.45203125 -1.69546875 16.83203125 -1.35546875 C16.83203125 8.87453125 16.83203125 19.10453125 16.83203125 29.64453125 C11.83203125 30.64453125 11.83203125 30.64453125 8.83203125 30.64453125 C8.48591797 29.46697266 8.48591797 29.46697266 8.1328125 28.265625 C5.69892579 20.42523895 3.55892008 13.66185529 -3.73046875 9.26953125 C-11.30447411 5.68909235 -19.46713614 5.38483859 -27.41796875 8.14453125 C-33.77848039 11.05219371 -37.68807531 15.20648613 -40.44921875 21.62109375 C-45.62590201 36.52254627 -46.47769172 53.92868235 -39.84375 68.56640625 C-36.44629663 74.59443375 -32.87826725 78.87772244 -26.54296875 81.89453125 C-18.12790237 83.764546 -10.03296194 84.82611112 -2.16796875 80.64453125 C1.97392832 77.82195208 3.94054457 75.15292425 6.08203125 70.64453125 C6.83226562 69.09765625 6.83226562 69.09765625 7.59765625 67.51953125 C8.5940642 65.19878361 9.33445734 63.10870679 9.83203125 60.64453125 C12.14203125 60.64453125 14.45203125 60.64453125 16.83203125 60.64453125 C18.18409664 66.99923858 18.07259813 72.81136632 14.7109375 78.5625 C8.25417966 86.84836771 -2.52705208 91.98569466 -12.79296875 93.45703125 C-25.34943151 94.38427773 -38.37459972 91.42034945 -48.2890625 83.46875 C-58.35759861 73.69326899 -62.98368647 60.79651799 -63.54296875 47.01953125 C-63.27376556 33.11069978 -58.6996342 19.85863862 -49.24609375 9.5625 C-35.61973891 -3.01370343 -17.35532482 -6.53642104 0 0 Z " fill="#070707" transform="translate(559.16796875,63.35546875)"/>
<path d="M0 0 C7 8.20863309 7 8.20863309 7 12 C7.66 12.33 8.32 12.66 9 13 C11.25107742 25.60603356 10.39383245 37.23457996 3 48 C-2.59369585 55.27326511 -9.75278544 59.29610536 -18.84375 60.515625 C-27.91807614 61.08536258 -35.56467024 59.49419787 -43 54 C-50.45415099 47.01934317 -54.04914523 38.1016817 -54.41992188 27.97900391 C-54.50610626 17.66321136 -52.76591263 10.10254617 -46.07421875 2.078125 C-33.72316629 -10.29618745 -13.42515631 -11.54751208 0 0 Z M-32 3 C-37.44496058 10.09763155 -38.20418633 15.88604259 -38.25 24.625 C-38.270625 25.58535156 -38.29125 26.54570313 -38.3125 27.53515625 C-38.35208784 34.82921521 -37.61132675 41.35477691 -33.2734375 47.41015625 C-29.7672547 50.46183387 -27.12237148 52.44692374 -22.375 52.6875 C-18.02102895 52.30530977 -15.30718247 50.92262637 -12 48 C-5.50117384 40.2375132 -5.41669041 30.71278301 -6 21 C-6.28640939 19.32463182 -6.61742155 17.65605635 -7 16 C-7.16757812 15.25878906 -7.33515625 14.51757812 -7.5078125 13.75390625 C-8.93919099 8.67160666 -10.72415914 5.32220268 -14.97265625 2.09765625 C-20.7315222 -1.02034246 -26.72039003 -0.95970748 -32 3 Z " fill="#070808" transform="translate(884,96)"/>
<path d="M0 0 C7.7538918 4.84618237 12.36638881 9.63353987 14.71875 18.62109375 C15.78520391 23.79199197 15.94443599 27.65832972 15 32.875 C13.89487061 32.90005615 12.78974121 32.9251123 11.65112305 32.95092773 C7.55285956 33.04506509 3.45476306 33.14527041 -0.64331055 33.24731445 C-2.41735937 33.29063934 -4.19144923 33.33231619 -5.96557617 33.37231445 C-8.51493705 33.4300762 -11.0640918 33.49375362 -13.61328125 33.55859375 C-14.40712723 33.57530624 -15.20097321 33.59201874 -16.01887512 33.60923767 C-19.24683077 33.69617718 -21.91751099 33.84750366 -25 34.875 C-24.55249371 41.81906317 -23.86326043 47.29108205 -18.4375 52.1875 C-13.2447332 55.7824924 -8.18024505 55.44934215 -2 54.875 C3.01039585 52.54874478 5.27188152 49.49181589 8 44.875 C10.3431213 45.13061323 12.67843403 45.46770772 15 45.875 C15.33 46.535 15.66 47.195 16 47.875 C11.5393145 55.22777829 6.55577017 62.2102575 -1.79296875 65.4140625 C-7.11446669 66.52545499 -12.60235145 66.11868616 -18 65.875 C-18.93585937 65.8440625 -19.87171875 65.813125 -20.8359375 65.78125 C-23.25 65.625 -23.25 65.625 -27 64.875 C-27.71555877 63.56725466 -28.37829087 62.22988006 -29 60.875 C-30.60682263 59.31247894 -30.60682263 59.31247894 -32.4375 57.9375 C-35.36349417 55.52965063 -37.35682909 53.35465604 -39 49.875 C-39 49.215 -39 48.555 -39 47.875 C-39.99 47.875 -40.98 47.875 -42 47.875 C-41.67 46.885 -41.34 45.895 -41 44.875 C-41.31147255 43.2041099 -41.64901854 41.53803966 -42 39.875 C-42.85836168 27.6890784 -41.56294857 17.33682343 -33.63671875 7.59375 C-25.23248351 -1.23169989 -11.61535411 -4.47151445 0 0 Z M-21 8.875 C-25.91961821 14.18300912 -25.20097761 16.88477607 -26 24.875 C-17.75 24.875 -9.5 24.875 -1 24.875 C-1.33 23.885 -1.66 22.895 -2 21.875 C-1.34 21.875 -0.68 21.875 0 21.875 C-0.40028151 16.07091817 -1.08295933 12.44488078 -5 7.875 C-10.80605924 4.68166742 -15.34464243 5.84534416 -21 8.875 Z " fill="#070707" transform="translate(628,90.125)"/>
<path d="M0 0 C5.64646223 8.3890296 5.1875 14.59972574 5.1875 25.25 C-8.3425 25.58 -21.8725 25.91 -35.8125 26.25 C-35.4825 29.22 -35.1525 32.19 -34.8125 35.25 C-34.1525 35.58 -33.4925 35.91 -32.8125 36.25 C-32.42078247 37.90391846 -32.09192455 39.57345271 -31.8125 41.25 C-31.14919415 44.32456984 -31.14919415 44.32456984 -28.9375 45.375 C-23.24150635 47.72040915 -17.91015354 47.82342172 -11.8125 47.25 C-7.68366308 45.33304 -6.1727279 43.8009368 -3.6875 40 C-3.06875 39.0925 -2.45 38.185 -1.8125 37.25 C-0.4925 37.25 0.8275 37.25 2.1875 37.25 C2.6825 36.26 2.6825 36.26 3.1875 35.25 C4.625 37.625 4.625 37.625 5.1875 41.25 C1.80979138 48.60008426 -3.74640319 53.53892978 -10.8125 57.25 C-18.80459836 59.91403279 -27.82365986 59.24552493 -35.375 55.6875 C-42.20414166 51.79562357 -45.96663956 46.98025577 -49.8125 40.25 C-50.4725 39.59 -51.1325 38.93 -51.8125 38.25 C-51.1525 38.25 -50.4925 38.25 -49.8125 38.25 C-50.1425 37.156875 -50.4725 36.06375 -50.8125 34.9375 C-53.18638388 25.25410317 -52.30411521 15.61524542 -47.48828125 6.8359375 C-42.58294444 -0.86325256 -37.85097666 -6.42190753 -28.8125 -8.75 C-17.5089198 -11.12010553 -8.19218262 -8.01013412 0 0 Z M-31.8125 2.25 C-35.71795714 7.34359622 -35.8125 10.63657711 -35.8125 17.25 C-27.2325 17.25 -18.6525 17.25 -9.8125 17.25 C-8.03023795 13.6854759 -9.69139191 9.91516105 -10.8125 6.25 C-12.34095772 2.88739302 -13.41405214 0.92026199 -16.79296875 -0.69921875 C-22.63468286 -2.43866202 -27.12146536 -1.72096612 -31.8125 2.25 Z " fill="#070707" transform="translate(756.8125,97.75)"/>
<path d="M0 0 C0.33 0.66 0.66 1.32 1 2 C1.58659897 1.99777939 2.17319794 1.99555878 2.77757263 1.99327087 C8.86025384 1.9712179 14.94292377 1.95609336 21.02563477 1.94506836 C23.29842591 1.94002675 25.5712138 1.93319363 27.84399414 1.92456055 C31.10303551 1.91248739 34.36203417 1.90677013 37.62109375 1.90234375 C38.64400009 1.89718246 39.66690643 1.89202118 40.72080994 1.88670349 C41.66170975 1.88662796 42.60260956 1.88655243 43.57202148 1.88647461 C44.40475082 1.884254 45.23748016 1.88203339 46.09544373 1.87974548 C48 2 48 2 49 3 C49.04092937 5.33297433 49.04241723 7.66705225 49 10 C48.34 10 47.68 10 47 10 C46.8040625 10.65097656 46.608125 11.30195312 46.40625 11.97265625 C44.39589653 16.30050054 41.47690323 19.73039076 38.5 23.4375 C32.41319242 31.1323208 26.63320976 38.96839325 21 47 C19.33730887 49.3362011 17.66890375 51.66822763 16 54 C16.66 54.99 17.32 55.98 18 57 C24.37226609 57.99767802 30.95958502 57.11944385 37 55 C40.57753784 52.29267407 42.16092645 49.04596181 44 45 C45.65 45 47.3 45 49 45 C50.27739101 47.55478201 49.88495926 48.7670575 49.44140625 51.5703125 C49.23354492 52.91416016 49.23354492 52.91416016 49.02148438 54.28515625 C48.87001953 55.22230469 48.71855469 56.15945312 48.5625 57.125 C48.34110352 58.54232422 48.34110352 58.54232422 48.11523438 59.98828125 C47.74915365 62.32647427 47.37717914 64.66357596 47 67 C39.61271898 67.02526692 32.22544902 67.0428316 24.83813477 67.05493164 C22.32283105 67.05997363 19.80753028 67.06680703 17.29223633 67.07543945 C13.68570225 67.08751094 10.07920677 67.09322949 6.47265625 67.09765625 C4.77424339 67.10539818 4.77424339 67.10539818 3.04151917 67.11329651 C2.00051559 67.11337204 0.95951202 67.11344757 -0.11303711 67.11352539 C-1.03459091 67.115746 -1.95614471 67.11796661 -2.90562439 67.12025452 C-5 67 -5 67 -6 66 C-5.70891225 60.40840747 -4.44254647 57.70943651 -0.6875 53.625 C3.51672093 48.88091366 7.26664625 43.96101439 10.875 38.75 C16.71409252 30.34288967 22.81165492 22.15237659 29 14 C28.505 13.01 28.505 13.01 28 12 C27.34 12 26.68 12 26 12 C26 11.34 26 10.68 26 10 C23.58197805 10.28270406 21.1659878 10.57579264 18.75 10.875 C18.06808594 10.95363281 17.38617187 11.03226563 16.68359375 11.11328125 C13.11210098 11.56405218 10.02850509 11.98342329 7 14 C4.88942301 16.93973224 4 18.34648137 4 22 C1.69 22 -0.62 22 -3 22 C-2.8859425 19.08252927 -2.75919732 16.16655505 -2.625 13.25 C-2.5940625 12.425 -2.563125 11.6 -2.53125 10.75 C-2.49257813 9.95078125 -2.45390625 9.1515625 -2.4140625 8.328125 C-2.36693115 7.22839355 -2.36693115 7.22839355 -2.31884766 6.10644531 C-1.96227477 3.75077082 -1.16337117 2.06549409 0 0 Z " fill="#080808" transform="translate(774,88)"/>
<path d="M0 0 C2.94089456 3.44299851 3.52477301 5.42288194 3.73828125 9.84765625 C3.48860541 12.90479823 2.53304881 14.67756747 0.5625 17 C-2.4375 19 -2.4375 19 -5.4375 18.875 C-8.4375 18 -8.4375 18 -10.25 16.1875 C-11.38531962 14.09612176 -12.02072069 12.33396414 -12.4375 10 C-15.18511543 8.88060112 -16.21151311 8.90629812 -19 10.0625 C-22.3513514 12.7263947 -24.0843092 15.66677383 -24.73495483 19.96502686 C-24.87813201 22.20695921 -24.930777 24.43328208 -24.94921875 26.6796875 C-24.96716995 27.49245148 -24.98512115 28.30521545 -25.00361633 29.14260864 C-25.05748358 31.7200208 -25.09153836 34.2972503 -25.125 36.875 C-25.15819399 38.63023362 -25.19268557 40.38544321 -25.22851562 42.140625 C-25.31319611 46.42695103 -25.38011897 50.71322512 -25.4375 55 C-23.9525 54.505 -23.9525 54.505 -22.4375 54 C-19.13394917 54.40287205 -17.82869721 54.60880279 -15.4375 57 C-15.25 60.0625 -15.25 60.0625 -15.4375 63 C-16.4375 64 -16.4375 64 -19.58032227 64.11352539 C-20.97152697 64.11336633 -22.36273761 64.10767506 -23.75390625 64.09765625 C-24.48496078 64.0962413 -25.21601532 64.09482635 -25.96922302 64.09336853 C-28.31285632 64.08775408 -30.65639539 64.07519922 -33 64.0625 C-34.58528508 64.05748686 -36.17057166 64.05292363 -37.75585938 64.04882812 C-41.6497761 64.03777997 -45.54362205 64.02050572 -49.4375 64 C-50.26388376 61.10765685 -50.4375 59.11257569 -50.4375 56 C-45.4875 55.505 -45.4875 55.505 -40.4375 55 C-40.7675 39.49 -41.0975 23.98 -41.4375 8 C-44.0775 7.67 -46.7175 7.34 -49.4375 7 C-49.81813221 4.6739143 -50.15019945 2.33944736 -50.4375 0 C-49.4375 -1 -49.4375 -1 -47.12084961 -1.11352539 C-46.12061768 -1.10828857 -45.12038574 -1.10305176 -44.08984375 -1.09765625 C-43.01025391 -1.09443359 -41.93066406 -1.09121094 -40.81835938 -1.08789062 C-39.11389648 -1.07532227 -39.11389648 -1.07532227 -37.375 -1.0625 C-35.66473633 -1.05573242 -35.66473633 -1.05573242 -33.91992188 -1.04882812 C-31.09239649 -1.03699747 -28.2649736 -1.0205141 -25.4375 -1 C-25.4375 1.64 -25.4375 4.28 -25.4375 7 C-24.3546875 5.6078125 -24.3546875 5.6078125 -23.25 4.1875 C-16.91235481 -3.40335187 -8.57979552 -4.99188103 0 0 Z " fill="#090909" transform="translate(698.4375,91)"/>
<path d="M0 0 C7.59 0 15.18 0 23 0 C24.18515779 3.55547336 24.1127248 6.36039104 24.09765625 10.11425781 C24.09619598 10.83496964 24.09473572 11.55568146 24.0932312 12.29823303 C24.0894265 13.86313817 24.08331129 15.428039 24.07516479 16.99292755 C24.0623953 19.47346354 24.05588343 21.95394599 24.05102539 24.43450928 C24.03765502 30.59872184 24.01351565 36.76288383 23.98962402 42.92706299 C23.96984834 48.13104724 23.95422231 53.33501218 23.94406128 58.53902435 C23.93760578 60.97569742 23.92509456 63.41229088 23.91235352 65.84893799 C23.9087179 67.35534599 23.90536655 68.86175471 23.90234375 70.36816406 C23.89710693 71.67593811 23.89187012 72.98371216 23.88647461 74.33111572 C23.93073326 78.04342937 23.93073326 78.04342937 24.56860352 81.85198975 C25 85 25 85 24 87 C26.97 87 29.94 87 33 87 C33 89.97 33 92.94 33 96 C21.78 96 10.56 96 -1 96 C-1 89 -1 89 0 88 C1.51469448 87.76807135 3.03754562 87.58784762 4.5625 87.4375 C5.38878906 87.35371094 6.21507812 87.26992187 7.06640625 87.18359375 C7.70449219 87.12300781 8.34257812 87.06242187 9 87 C9.06941369 77.12541735 9.12276721 67.25089244 9.15543652 57.3761158 C9.17111366 52.79118375 9.19238906 48.20641822 9.22631836 43.62158203 C9.25883911 39.19956697 9.27683757 34.77771239 9.28463173 30.35558701 C9.29018839 28.6658157 9.30103878 26.9760535 9.31719017 25.28635025 C9.33886814 22.92524262 9.34197105 20.5648039 9.34057617 18.20361328 C9.351362 17.50014771 9.36214783 16.79668213 9.3732605 16.07189941 C9.39458593 13.92357862 9.39458593 13.92357862 9 11 C5.71536341 8.81024227 2.79303725 8.00193437 -1 7 C-1.33 5.35 -1.66 3.7 -2 2 C-1.34 2 -0.68 2 0 2 C0 1.34 0 0.68 0 0 Z " fill="#060707" transform="translate(426,59)"/>
<path d="M0 0 C1.15242188 0.02578125 2.30484375 0.0515625 3.4921875 0.078125 C7.3193001 0.27623436 11.02787486 0.65633331 14.8125 1.25 C14.64492188 1.84167969 14.47734375 2.43335938 14.3046875 3.04296875 C13.06744081 7.84317269 12.40106117 10.69505998 14.8125 15.25 C14.8125 16.24 14.8125 17.23 14.8125 18.25 C15.4725 18.25 16.1325 18.25 16.8125 18.25 C16.750625 17.156875 16.68875 16.06375 16.625 14.9375 C16.8125 11.25 16.8125 11.25 18.25 9.5 C18.765625 9.0875 19.28125 8.675 19.8125 8.25 C20.1425 7.26 20.4725 6.27 20.8125 5.25 C19.8225 5.58 18.8325 5.91 17.8125 6.25 C16.75 4.375 16.75 4.375 15.8125 2.25 C16.1425 1.59 16.4725 0.93 16.8125 0.25 C22.23196589 0.16397673 27.41681806 0.35885566 32.79296875 1.02734375 C35.14282448 1.28641875 37.45051796 1.32619297 39.8125 1.25 C40.3075 3.23 40.3075 3.23 40.8125 5.25 C40.1525 5.25 39.4925 5.25 38.8125 5.25 C39.3075 13.665 39.3075 13.665 39.8125 22.25 C40.8025 22.58 41.7925 22.91 42.8125 23.25 C42.8125 24.57 42.8125 25.89 42.8125 27.25 C38.5225 27.25 34.2325 27.25 29.8125 27.25 C29.3175 25.765 29.3175 25.765 28.8125 24.25 C30.1325 23.92 31.4525 23.59 32.8125 23.25 C32.83971176 21.35424749 32.85899136 19.45838021 32.875 17.5625 C32.88660156 16.50675781 32.89820313 15.45101562 32.91015625 14.36328125 C32.82115425 11.52589738 32.46189838 9.0061081 31.8125 6.25 C30.8225 5.92 29.8325 5.59 28.8125 5.25 C23.94430261 9.24277593 22.54029006 14.49997891 20.45703125 20.2265625 C20.02970703 21.3403125 20.02970703 21.3403125 19.59375 22.4765625 C19.34689453 23.15283691 19.10003906 23.82911133 18.84570312 24.52587891 C17.52725545 26.72599174 16.15227905 27.30332104 13.8125 28.25 C10.02792731 23.93466407 8.42849364 18.55874748 6.41796875 13.2734375 C5.97904297 12.1596875 5.97904297 12.1596875 5.53125 11.0234375 C5.27279297 10.34716309 5.01433594 9.67088867 4.74804688 8.97412109 C3.79792301 6.90317206 3.79792301 6.90317206 0.8125 5.25 C0.1525 6.57 -0.5075 7.89 -1.1875 9.25 C-2.321875 9.064375 -3.45625 8.87875 -4.625 8.6875 C-5.800625 8.543125 -6.97625 8.39875 -8.1875 8.25 C-10.12840826 10.19090826 -9.58669435 13.72293902 -9.75 16.3125 C-9.83378906 17.60285156 -9.91757812 18.89320313 -10.00390625 20.22265625 C-10.06449219 21.22167969 -10.12507813 22.22070312 -10.1875 23.25 C-8.8675 23.58 -7.5475 23.91 -6.1875 24.25 C-6.5175 25.24 -6.8475 26.23 -7.1875 27.25 C-11.4775 27.25 -15.7675 27.25 -20.1875 27.25 C-20.1875 25.93 -20.1875 24.61 -20.1875 23.25 C-19.5275 22.92 -18.8675 22.59 -18.1875 22.25 C-18.5175 21.92 -18.8475 21.59 -19.1875 21.25 C-19.22830783 19.25041636 -19.23004356 17.24954746 -19.1875 15.25 C-18.8575 15.25 -18.5275 15.25 -18.1875 15.25 C-17.8575 11.95 -17.5275 8.65 -17.1875 5.25 C-18.1775 5.25 -19.1675 5.25 -20.1875 5.25 C-20.5175 4.26 -20.8475 3.27 -21.1875 2.25 C-17.79348928 1.47422612 -14.67147425 0.9675156 -11.1875 1.25 C-10.5275 1.91 -9.8675 2.57 -9.1875 3.25 C-8.82011719 2.76015625 -8.45273437 2.2703125 -8.07421875 1.765625 C-5.37479133 -0.40285914 -3.42026062 -0.08019368 0 0 Z M-1.1875 1.25 C-0.5275 1.91 0.1325 2.57 0.8125 3.25 C0.8125 2.59 0.8125 1.93 0.8125 1.25 C0.1525 1.25 -0.5075 1.25 -1.1875 1.25 Z M-18.1875 18.25 C-17.1875 21.25 -17.1875 21.25 -17.1875 21.25 Z " fill="#141413" transform="translate(423.1875,188.75)"/>
<path d="M0 0 C2.52516531 0.36823845 2.52516531 0.36823845 4.53125 -0.84375 C8.09375 -0.96875 8.09375 -0.96875 11.53125 -0.84375 C11.86125 -0.51375 12.19125 -0.18375 12.53125 0.15625 C14.86422433 0.19717937 17.19830225 0.19866723 19.53125 0.15625 C19.55630615 0.71610596 19.5813623 1.27596191 19.60717773 1.8527832 C19.72328745 4.39166305 19.8459458 6.93018553 19.96875 9.46875 C20.00806641 10.34982422 20.04738281 11.23089844 20.08789062 12.13867188 C20.12978516 12.98623047 20.17167969 13.83378906 20.21484375 14.70703125 C20.26983032 15.87745972 20.26983032 15.87745972 20.32592773 17.0715332 C20.47250263 19.34954101 20.47250263 19.34954101 21.53125 22.15625 C22.19125 22.15625 22.85125 22.15625 23.53125 22.15625 C23.20125 23.47625 22.87125 24.79625 22.53125 26.15625 C20.55125 26.15625 18.57125 26.15625 16.53125 26.15625 C16.20125 26.81625 15.87125 27.47625 15.53125 28.15625 C15.53125 27.49625 15.53125 26.83625 15.53125 26.15625 C14.933125 26.383125 14.335 26.61 13.71875 26.84375 C12.996875 26.946875 12.275 27.05 11.53125 27.15625 C9.78125 25.71875 9.78125 25.71875 8.53125 24.15625 C9.19125 22.83625 9.85125 21.51625 10.53125 20.15625 C11.19125 20.15625 11.85125 20.15625 12.53125 20.15625 C12.6122706 18.05271505 12.67044907 15.94829048 12.71875 13.84375 C12.75355469 12.67199219 12.78835938 11.50023437 12.82421875 10.29296875 C12.81842399 7.16336536 12.81842399 7.16336536 11.01953125 5.23828125 C10.52839844 4.88121094 10.03726563 4.52414063 9.53125 4.15625 C7.16935005 6.20130449 7.16935005 6.20130449 6.12890625 9.0703125 C5.028867 12.90966517 1.75077787 15.00568129 -1.46875 17.15625 C-3.82901215 18.12409444 -5.95333917 18.64290085 -8.46875 19.15625 C-7.23898437 19.30320313 -7.23898437 19.30320313 -5.984375 19.453125 C-4.90671875 19.60265625 -3.8290625 19.7521875 -2.71875 19.90625 C-1.65140625 20.04546875 -0.5840625 20.1846875 0.515625 20.328125 C3.99026246 21.28230005 5.35211461 22.31975073 7.53125 25.15625 C8.09375 28.65625 8.09375 28.65625 7.53125 32.15625 C4.38058862 35.58491091 1.05745702 37.19878313 -3.46875 38.15625 C-6.50600006 38.02181434 -9.470252 37.64933634 -12.46875 37.15625 C-12.79875 37.81625 -13.12875 38.47625 -13.46875 39.15625 C-13.46875 38.16625 -13.46875 37.17625 -13.46875 36.15625 C-14.4278125 35.8778125 -14.4278125 35.8778125 -15.40625 35.59375 C-17.46875 34.15625 -17.46875 34.15625 -18.34375 30.65625 C-18.385 29.50125 -18.42625 28.34625 -18.46875 27.15625 C-17.80875 26.49625 -17.14875 25.83625 -16.46875 25.15625 C-16.489375 24.00125 -16.51 22.84625 -16.53125 21.65625 C-16.510625 20.50125 -16.49 19.34625 -16.46875 18.15625 C-15.47875 17.49625 -14.48875 16.83625 -13.46875 16.15625 C-13.984375 15.475625 -14.5 14.795 -15.03125 14.09375 C-16.92207378 10.22989271 -16.66123952 8.25543272 -15.46875 4.15625 C-10.12650765 -1.04901178 -7.07224324 -0.81889132 0 0 Z M-9.46875 4.15625 C-10.40029626 6.99293535 -10.40029626 6.99293535 -10.46875 10.15625 C-9.15739588 12.51915685 -9.15739588 12.51915685 -7.46875 14.15625 C-5.81875 13.82625 -4.16875 13.49625 -2.46875 13.15625 C-1.43851839 9.87824032 -1.29721022 8.54221452 -2.71875 5.34375 C-3.585 4.2609375 -3.585 4.2609375 -4.46875 3.15625 C-7.3942144 2.9326432 -7.3942144 2.9326432 -9.46875 4.15625 Z M19.53125 20.15625 C20.53125 22.15625 20.53125 22.15625 20.53125 22.15625 Z M-10.46875 26.15625 C-10.13875 27.14625 -9.80875 28.13625 -9.46875 29.15625 C-10.45875 29.48625 -11.44875 29.81625 -12.46875 30.15625 C-11.52145463 32.31436388 -11.52145463 32.31436388 -9.46875 34.15625 C-5.81983453 34.87843119 -2.61567802 34.85135789 0.59375 32.90625 C1.73830928 31.17052268 1.73830928 31.17052268 1.28125 29.03125 C0.68170529 27.17539885 0.68170529 27.17539885 -0.46875 26.15625 C-2.15483966 26.08419489 -3.84375659 26.07238932 -5.53125 26.09375 C-6.45035156 26.10277344 -7.36945312 26.11179688 -8.31640625 26.12109375 C-9.02667969 26.13269531 -9.73695313 26.14429688 -10.46875 26.15625 Z " fill="#141413" transform="translate(815.46875,189.84375)"/>
<path d="M0 0 C0 3.63 0 7.26 0 11 C-1.32 11.33 -2.64 11.66 -4 12 C-4.4125 10.88625 -4.825 9.7725 -5.25 8.625 C-6.26728696 6.28760577 -6.82338894 5.14616088 -8.8125 3.5 C-11.75263273 2.82796966 -14.08649545 3.33783987 -17 4 C-17.74957157 7.47147842 -17.74957157 7.47147842 -18 11 C-17.33613281 11.18175781 -16.67226563 11.36351562 -15.98828125 11.55078125 C-9.7576263 13.32447134 -5.01921439 14.7150995 -0.625 19.6875 C1.15885028 23.32381019 1.48930127 25.19813466 0.7265625 29.1015625 C-0.58520958 32.529096 -2.79628482 34.45499331 -6 36 C-11.46916415 37.41940195 -16.46666057 36.95769336 -22 36 C-23.66628955 35.96454703 -25.33409803 35.94951812 -27 36 C-27 33 -27 33 -26 31 C-25.93049459 29.45976004 -25.91547643 27.91665012 -25.9375 26.375 C-25.95103516 25.14910156 -25.95103516 25.14910156 -25.96484375 23.8984375 C-25.97644531 23.27195313 -25.98804688 22.64546875 -26 22 C-24.1015625 22.28125 -24.1015625 22.28125 -22 23 C-20.93097061 25.30252483 -19.92824183 27.6372026 -19 30 C-16.59454362 31.20272819 -15.05003047 31.10071472 -12.375 31.0625 C-11.14910156 31.04896484 -11.14910156 31.04896484 -9.8984375 31.03515625 C-9.27195312 31.02355469 -8.64546875 31.01195312 -8 31 C-7.02391783 28.07175348 -6.91773332 26.04386724 -7 23 C-7.8353125 22.76216797 -7.8353125 22.76216797 -8.6875 22.51953125 C-15.03400393 20.57913055 -21.83603042 18.37579254 -25.5625 12.5625 C-26.34170058 7.99861087 -25.69468333 5.07795688 -23.1875 1.1875 C-17.43245939 -4.56754061 -7.005278 -2.43661844 0 0 Z " fill="#131111" transform="translate(374,180)"/>
<path d="M0 0 C10.23 0 20.46 0 31 0 C32 11 32 11 31 13 C30.01 13 29.02 13 28 13 C27.34 11.35 26.68 9.7 26 8 C25.67 8.66 25.34 9.32 25 10 C24.5875 9.360625 24.175 8.72125 23.75 8.0625 C21.77785249 5.7381833 20.88781766 5.56682371 18 5 C18.12568359 6.52367187 18.12568359 6.52367187 18.25390625 8.078125 C18.8963178 16.51478745 19.03808789 24.56753225 18 33 C19.98 33.66 21.96 34.32 24 35 C24 35.99 24 36.98 24 38 C18.39 38 12.78 38 7 38 C6.67 36.68 6.34 35.36 6 34 C8.475 33.505 8.475 33.505 11 33 C11.33 24.42 11.66 15.84 12 7 C10.02 6.34 8.04 5.68 6 5 C5.67 5.99 5.34 6.98 5 8 C4.34 8.66 3.68 9.32 3 10 C2.67 10.99 2.34 11.98 2 13 C1.01 13 0.02 13 -1 13 C-2.33243323 7.53702376 -1.7046773 5.96637057 0 0 Z " fill="#0D0D0C" transform="translate(613,178)"/>
<path d="M0 0 C3 2 3 2 3.765625 5.5546875 C3.94111205 6.99314956 4.10201775 8.43344873 4.25 9.875 C4.34023438 10.59558594 4.43046875 11.31617188 4.5234375 12.05859375 C4.92504838 15.57592779 5.23365436 18.63388596 4 22 C4.99 22 5.98 22 7 22 C7 23.32 7 24.64 7 26 C5.20909747 26.19466332 3.41723495 26.38051213 1.625 26.5625 C0.62726562 26.66691406 -0.37046875 26.77132812 -1.3984375 26.87890625 C-4 27 -4 27 -6 26 C-6 24.68 -6 23.36 -6 22 C-5.01 22 -4.02 22 -3 22 C-3 16.39 -3 10.78 -3 5 C-8.47825081 4.5527864 -8.47825081 4.5527864 -11 6 C-11.31241455 8.71446979 -11.51336592 11.33909361 -11.625 14.0625 C-11.68300781 15.20041992 -11.68300781 15.20041992 -11.7421875 16.36132812 C-11.83673562 18.24047195 -11.91946756 20.12020336 -12 22 C-11.01 22 -10.02 22 -9 22 C-9 23.32 -9 24.64 -9 26 C-10.65 26 -12.3 26 -14 26 C-14 26.66 -14 27.32 -14 28 C-15.31571603 27.7452486 -16.62760376 27.47065859 -17.9375 27.1875 C-18.66839844 27.03667969 -19.39929688 26.88585937 -20.15234375 26.73046875 C-20.76207031 26.48941406 -21.37179687 26.24835938 -22 26 C-22.33 25.01 -22.66 24.02 -23 23 C-21.68 22.67 -20.36 22.34 -19 22 C-19.08378906 20.86820313 -19.16757812 19.73640625 -19.25390625 18.5703125 C-19.35706608 17.08856219 -19.45991453 15.60679018 -19.5625 14.125 C-19.61857422 13.37863281 -19.67464844 12.63226563 -19.73242188 11.86328125 C-20.11328125 6.2265625 -20.11328125 6.2265625 -19 4 C-19.99 4 -20.98 4 -22 4 C-22 3.01 -22 2.02 -22 1 C-19.0500839 0.13988779 -16.50320399 -0.08299706 -13.4375 0 C-8.55969499 0.13161025 -4.91653063 -1.12670493 0 0 Z " fill="#141414" transform="translate(718,190)"/>
<path d="M0 0 C5.15171623 -0.09038099 9.91913204 0.15318867 15 1 C14.4225 1.61875 13.845 2.2375 13.25 2.875 C11.72695362 6.68261594 12.26467044 7.5472856 13.75 11.25 C15.02409988 14.3572184 15.02409988 14.3572184 17 17 C18.32 13.37 19.64 9.74 21 6 C20.01 5.67 19.02 5.34 18 5 C18.33 3.68 18.66 2.36 19 1 C26.625 -0.125 26.625 -0.125 30 1 C29.36892571 4.6602309 29.36892571 4.6602309 27.61914062 6.27172852 C25.4653321 8.57070477 24.59125954 10.92460374 23.40625 13.83984375 C22.93316406 14.98517578 22.46007812 16.13050781 21.97265625 17.31054688 C21.48667969 18.50744141 21.00070312 19.70433594 20.5 20.9375 C19.53645687 23.30290894 18.56790266 25.66628437 17.59375 28.02734375 C17.16771484 29.07656006 16.74167969 30.12577637 16.30273438 31.20678711 C15.08826031 33.8107597 13.90184578 35.85419202 12 38 C9.02043802 39.06958635 7.63772095 39.25853552 4.6875 38.0625 C3.8521875 37.5365625 3.8521875 37.5365625 3 37 C3.495 34.03 3.495 34.03 4 31 C6.31 31 8.62 31 11 31 C12.63307945 24.51111516 11.07102589 20.61455268 8.25 14.6875 C7.8890625 13.87732422 7.528125 13.06714844 7.15625 12.23242188 C5.00287514 7.39832401 5.00287514 7.39832401 1 4 C0.3125 1.875 0.3125 1.875 0 0 Z " fill="#111111" transform="translate(570,189)"/>
<path d="M0 0 C1.1482685 2.296537 1.11561175 3.58313167 1.09765625 6.1328125 C1.09443359 6.93847656 1.09121094 7.74414062 1.08789062 8.57421875 C1.07951172 9.41597656 1.07113281 10.25773438 1.0625 11.125 C1.05798828 11.97449219 1.05347656 12.82398438 1.04882812 13.69921875 C1.03702874 15.79950909 1.01909306 17.8997633 1 20 C1.99 19.67 2.98 19.34 4 19 C4.33 20.32 4.66 21.64 5 23 C2.04335481 24.4783226 -0.74229737 24.06032783 -4 24 C-4.33 23.34 -4.66 22.68 -5 22 C-5.639375 22.515625 -6.27875 23.03125 -6.9375 23.5625 C-11.32933714 25.62397458 -14.25396514 24.77919975 -19 24 C-19.33 20.37 -19.66 16.74 -20 13 C-15.4407093 9.96047287 -11.52837581 8 -6 8 C-6.27617533 6.05925139 -6.27617533 6.05925139 -7 4 C-7.99 3.34 -8.98 2.68 -10 2 C-11.23267071 3.12416639 -11.23267071 3.12416639 -12.25 5.5625 C-12.8275 6.366875 -13.405 7.17125 -14 8 C-16.6875 8.3125 -16.6875 8.3125 -19 8 C-19 5.36 -19 2.72 -19 0 C-11.76672499 -3.099975 -7.22839783 -3.39017832 0 0 Z M-13 14 C-13 15.65 -13 17.3 -13 19 C-9.41672247 20.00217064 -9.41672247 20.00217064 -6 19 C-5.17195931 16.51587793 -5 14.64779693 -5 12 C-8.76687864 12 -9.91190305 12.23537317 -13 14 Z " fill="#121211" transform="translate(859,192)"/>
<path d="M0 0 C2.69700678 2.09767194 3.39005346 3.46656776 4.25 6.75 C4.375 9.5625 4.375 9.5625 4.25 11.75 C3.074375 11.9665625 3.074375 11.9665625 1.875 12.1875 C-0.71421018 12.62798925 -0.71421018 12.62798925 -2.75 13.75 C-2.75 13.09 -2.75 12.43 -2.75 11.75 C-4.07 11.75 -5.39 11.75 -6.75 11.75 C-6.75 12.41 -6.75 13.07 -6.75 13.75 C-8.4 13.75 -10.05 13.75 -11.75 13.75 C-11.09 15.4 -10.43 17.05 -9.75 18.75 C-6.48723433 19.61013727 -6.48723433 19.61013727 -2.75 19.75 C0.10157455 18.05252228 0.10157455 18.05252228 2.25 15.75 C2.91 15.09 3.57 14.43 4.25 13.75 C4.91 14.08 5.57 14.41 6.25 14.75 C5.92 15.41 5.59 16.07 5.25 16.75 C5.58 17.08 5.91 17.41 6.25 17.75 C-1.43965517 25.43965517 -1.43965517 25.43965517 -7.75 25.75 C-11.4375 24.4375 -11.4375 24.4375 -14.75 22.75 C-15.45898438 22.48058594 -16.16796875 22.21117187 -16.8984375 21.93359375 C-18.75 20.75 -18.75 20.75 -19.46484375 18.6484375 C-19.98460494 12.75781067 -19.8761672 7.91652823 -16.75 2.75 C-11.33526349 -2.52936809 -6.86533719 -3.12060781 0 0 Z M-6.75 1.75 C-7.08 2.41 -7.41 3.07 -7.75 3.75 C-7.09 3.75 -6.43 3.75 -5.75 3.75 C-6.08 3.09 -6.41 2.43 -6.75 1.75 Z M-10.75 2.75 C-13.0273501 5.56509993 -13.0273501 5.56509993 -12.75 8.75 C-9.45 8.75 -6.15 8.75 -2.75 8.75 C-3.08 7.43 -3.41 6.11 -3.75 4.75 C-4.348125 4.605625 -4.94625 4.46125 -5.5625 4.3125 C-7.31150404 3.8627561 -9.03677023 3.32107659 -10.75 2.75 Z " fill="#151514" transform="translate(663.75,191.25)"/>
<path d="M0 0 C3.02807905 2.33987927 4.43000724 4.09117724 5.5625 7.75 C5.81918071 12.37025274 4.78087483 15.98453426 2.75 20.125 C0.03872853 23.13752385 -1.72747917 23.97985533 -5.625 25.0625 C-10.61012487 25.14845043 -14.23060973 23.74051222 -18.125 20.625 C-19.25 19.125 -19.25 19.125 -20.25 16.125 C-20.91 16.455 -21.57 16.785 -22.25 17.125 C-22.25 16.135 -22.25 15.145 -22.25 14.125 C-21.59 14.125 -20.93 14.125 -20.25 14.125 C-20.58 13.135 -20.91 12.145 -21.25 11.125 C-20.23996939 6.16666791 -18.90281174 2.67634475 -15.25 -0.875 C-9.49623282 -3.62680169 -5.46084715 -3.15048874 0 0 Z M-11.375 2.0625 C-14.34466186 5.32912805 -14.428341 8.81628154 -14.25 13.125 C-13.6416717 16.03205558 -12.87326067 17.52778293 -11.25 20.125 C-8.87822118 21.53302691 -8.87822118 21.53302691 -6.25 21.125 C-3.01263776 18.96675851 -2.33471197 17.48339681 -1.4375 13.6875 C-1.27180214 10.53924057 -1.42632655 8.14513598 -2.25 5.125 C-3.24 4.795 -4.23 4.465 -5.25 4.125 C-4.59 3.795 -3.93 3.465 -3.25 3.125 C-6.53953897 0.93197402 -7.75544018 0.46563538 -11.375 2.0625 Z " fill="#111110" transform="translate(528.25,191.875)"/>
<path d="M0 0 C3.8464579 3.66755288 4.74189038 7.66127501 5.09765625 12.82421875 C4.89160227 17.41510146 2.85918704 20.11694665 -0.25 23.3125 C-3.68542624 25.42060246 -5.9678164 25.93047959 -10 26 C-15.21230653 24.40980479 -17.98116952 22.52824572 -21 18 C-22.55944339 14.88111322 -22.28316275 12.4545855 -22 9 C-20.57304376 5.08606289 -18.39452698 2.40439016 -15.5 -0.5625 C-10.10571669 -2.77800922 -5.43298666 -1.89414026 0 0 Z M-11.1875 2.625 C-13.36776168 4.27899162 -14.0070365 5.45747911 -15 8 C-15.10205124 10.49754374 -15.10205124 10.49754374 -14.75 13.0625 C-14.66234375 13.91972656 -14.5746875 14.77695313 -14.484375 15.66015625 C-14.09908927 18.25709125 -14.09908927 18.25709125 -12 21 C-10.1935345 22.0146239 -10.1935345 22.0146239 -8 22 C-5.17891059 21.2081584 -5.17891059 21.2081584 -3 19 C-1.62563076 13.50252303 -1.66789091 9.30024792 -4 4 C-6.74140753 2.19644242 -8.01671522 1.71906149 -11.1875 2.625 Z " fill="#100F0F" transform="translate(791,191)"/>
<path d="M0 0 C3.82247716 2.81409362 5.65961485 6.12920101 6.50390625 10.76953125 C6.69985784 15.39019605 6.30602893 18.37701253 4.25 22.5625 C1.54980505 25.4877112 -0.42605824 26.75325995 -4.3671875 27.37109375 C-8.6954717 27.48570564 -11.98976918 27.56189261 -15.5 24.8125 C-18.50379572 21.43322982 -19.96888143 19.43613966 -20.02734375 14.859375 C-19.69950424 9.78206566 -18.87389391 6.5597944 -15 3 C-10.37264259 -0.12077593 -5.45727632 -1.47862032 0 0 Z M-8 4 C-10.46313739 5.82748903 -11.83428618 7.22976216 -12.48828125 10.26953125 C-12.72518293 12.51479346 -12.90361349 14.74455578 -13 17 C-12.01 17.33 -11.02 17.66 -10 18 C-10.2784375 18.9590625 -10.2784375 18.9590625 -10.5625 19.9375 C-10.706875 20.618125 -10.85125 21.29875 -11 22 C-9.81575674 23.41577477 -9.81575674 23.41577477 -6.4375 23.0625 C-4.7359375 23.0315625 -4.7359375 23.0315625 -3 23 C0.1593541 17.41037352 0.06792818 14.14290793 -1.45703125 7.94140625 C-1.72580078 6.98041016 -1.72580078 6.98041016 -2 6 C-3.98 5.34 -5.96 4.68 -8 4 Z " fill="#101010" transform="translate(746,189)"/>
<path d="M0 0 C3.75519324 0.54954047 5.19315155 2.53178186 7.5625 5.375 C7.5625 6.035 7.5625 6.695 7.5625 7.375 C8.2225 7.705 8.8825 8.035 9.5625 8.375 C10.46412736 20.71393741 10.46412736 20.71393741 8.47265625 24.3828125 C4.97629117 27.48038793 1.1160025 28.375 -3.4375 28.375 C-8.10370475 26.7281042 -10.88854993 24.62325012 -13.4375 20.375 C-14.89352007 14.3567837 -14.62149429 10.89392343 -11.4375 5.375 C-7.69288326 1.72639907 -4.98591442 0.76706376 0 0 Z M-6.4375 6.375 C-7.16715366 8.93782742 -7.16715366 8.93782742 -7.4375 11.375 C-4.1375 11.375 -0.8375 11.375 2.5625 11.375 C2.2325 9.395 1.9025 7.415 1.5625 5.375 C-2.61560069 4.18568813 -2.61560069 4.18568813 -6.4375 6.375 Z M-7.4375 14.375 C-7.4375 15.035 -7.4375 15.695 -7.4375 16.375 C-6.7775 16.375 -6.1175 16.375 -5.4375 16.375 C-5.7675 17.365 -6.0975 18.355 -6.4375 19.375 C-4.73957184 22.62588039 -4.73957184 22.62588039 -1.5625 23.1875 C1.63838583 23.37955315 2.92859075 23.09717143 5.5625 21.375 C5.5625 20.715 5.5625 20.055 5.5625 19.375 C6.2225 19.375 6.8825 19.375 7.5625 19.375 C6.9025 17.725 6.2425 16.075 5.5625 14.375 C1.2725 14.375 -3.0175 14.375 -7.4375 14.375 Z M6.5625 14.375 C6.5625 15.035 6.5625 15.695 6.5625 16.375 C7.2225 16.375 7.8825 16.375 8.5625 16.375 C8.5625 15.715 8.5625 15.055 8.5625 14.375 C7.9025 14.375 7.2425 14.375 6.5625 14.375 Z " fill="#151515" transform="translate(391.4375,188.625)"/>
<path d="M0 0 C1 1 1 1 1.09765625 3.06640625 C1.08605469 3.89011719 1.07445312 4.71382812 1.0625 5.5625 C1.05347656 6.38878906 1.04445313 7.21507812 1.03515625 8.06640625 C1.02355469 8.70449219 1.01195312 9.34257812 1 10 C-2.828125 8.265625 -2.828125 8.265625 -4.375 5.875 C-5.93673657 3.6296417 -5.93673657 3.6296417 -9.1875 3.75 C-10.115625 3.8325 -11.04375 3.915 -12 4 C-11.00048622 6.58793027 -10.39663229 7.77647099 -7.94140625 9.16015625 C-7.15636719 9.45792969 -6.37132812 9.75570312 -5.5625 10.0625 C-2.385732 11.28191836 -0.14814237 12.30468929 2 15 C2.56014973 18.68098393 2.25728689 20.51758708 0.5 23.8125 C-2.214987 26.18811363 -4.1657703 26.88823454 -7.76171875 27.15234375 C-11.80075139 26.87743577 -15.2445998 25.4669532 -19 24 C-19 20.37 -19 16.74 -19 13 C-18.01 13 -17.02 13 -16 13 C-16.33 11.68 -16.66 10.36 -17 9 C-17.66 9 -18.32 9 -19 9 C-19 7.68 -19 6.36 -19 5 C-18.34 5 -17.68 5 -17 5 C-16.773125 4.38125 -16.54625 3.7625 -16.3125 3.125 C-15 1 -15 1 -13 -0.3125 C-8.60326757 -1.32008452 -4.41615273 -0.809628 0 0 Z M-14 14 C-15.32360884 16.95240621 -15.32360884 16.95240621 -14.0625 19.6875 C-12.28685271 22.16771945 -12.28685271 22.16771945 -10.015625 22.3203125 C-8.0075887 22.3131918 -6.00133706 22.16404402 -4 22 C-4 20.68 -4 19.36 -4 18 C-5.28913487 17.32845067 -6.58140204 16.66291141 -7.875 16 C-8.59429688 15.62875 -9.31359375 15.2575 -10.0546875 14.875 C-11.94848977 13.86326254 -11.94848977 13.86326254 -14 14 Z " fill="#10100F" transform="translate(555,190)"/>
<path d="M0 0 C2.125 3.375 2.125 3.375 3 7 C2.01 8.485 2.01 8.485 1 10 C-1.76276177 9.47731534 -4.3260876 8.89130413 -7 8 C-7.33 7.01 -7.66 6.02 -8 5 C-8.99 5 -9.98 5 -11 5 C-12.84398144 8.1063995 -13.2039901 10.05281472 -12.75 13.625 C-12.66234375 14.40101563 -12.5746875 15.17703125 -12.484375 15.9765625 C-12.13545643 18.21325027 -12.13545643 18.21325027 -10 20 C-8.09178939 20.35513379 -8.09178939 20.35513379 -6 20.3125 C-4.948125 20.33763672 -4.948125 20.33763672 -3.875 20.36328125 C-3.25625 20.24339844 -2.6375 20.12351563 -2 20 C-1.34 19.01 -0.68 18.02 0 17 C1.32 17.33 2.64 17.66 4 18 C2.69822228 21.90533317 0.3598575 23.81766265 -3 26 C-6.90337169 27.32880738 -8.66263755 27.10469869 -12.625 25.875 C-16.21728229 23.87928762 -17.91846808 22.52259248 -20 19 C-21.59720697 13.35653536 -20.76756969 9.05191292 -18 4 C-13.34289021 -1.4698464 -6.50885139 -1.84417456 0 0 Z M-6 4 C-5 7 -5 7 -5 7 Z " fill="#111111" transform="translate(488,190)"/>
<path d="M0 0 C3.0625 2.25 3.0625 2.25 5 5 C4.8125 7.8125 4.8125 7.8125 4 10 C2.68 10.33 1.36 10.66 0 11 C-1.32 9.35 -2.64 7.7 -4 6 C-3.67 5.34 -3.34 4.68 -3 4 C-4.98 4.99 -4.98 4.99 -7 6 C-7 5.34 -7 4.68 -7 4 C-10.07053382 6.39885455 -10.93626913 7.49925747 -11.4375 11.4375 C-10.97812201 15.17814935 -10.38507181 17.10384137 -8 20 C-6.21328929 21.17612195 -6.21328929 21.17612195 -4 21 C-1.97582866 20.04987876 0.02583732 19.05008653 2 18 C2.99 18 3.98 18 5 18 C3.71807512 21.9526017 2.54990635 23.82646085 -1 26 C-6.046533 26.99931347 -9.95945043 26.58649157 -14.4375 24.0625 C-17.59806349 20.28524119 -19.38237011 16.91494211 -20 12 C-18.32502909 6.55634453 -14.66194427 3.019406 -10.1875 -0.375 C-6.66712924 -1.38082022 -3.44544203 -1.05542197 0 0 Z " fill="#121111" transform="translate(689,190)"/>
<path d="M0 0 C0 11.55 0 23.1 0 35 C1.32 35 2.64 35 4 35 C4 36.65 4 38.3 4 40 C1.70890403 40.08075665 -0.58299267 40.13907731 -2.875 40.1875 C-4.78925781 40.23970703 -4.78925781 40.23970703 -6.7421875 40.29296875 C-7.81726563 40.19628906 -8.89234375 40.09960938 -10 40 C-10.66 39.01 -11.32 38.02 -12 37 C-11.1850708 36.64188232 -10.3701416 36.28376465 -9.53051758 35.91479492 C-6.69209794 34.21236193 -6.69209794 34.21236193 -6.43237305 30.99731445 C-6.45855713 29.7980835 -6.48474121 28.59885254 -6.51171875 27.36328125 C-6.52783203 26.06455078 -6.54394531 24.76582031 -6.56054688 23.42773438 C-6.60232391 22.05597301 -6.64464865 20.68422823 -6.6875 19.3125 C-6.71258255 17.92907618 -6.73539582 16.54560923 -6.75585938 15.16210938 C-6.81489173 11.77365236 -6.89719918 8.38736615 -7 5 C-8.32 5 -9.64 5 -11 5 C-11.33 4.01 -11.66 3.02 -12 2 C-7.76446141 -0.82369239 -5.87293746 0 0 0 Z " fill="#131312" transform="translate(764,177)"/>
<path d="M0 0 C5.41946589 -0.08602327 10.60431806 0.10885566 15.98046875 0.77734375 C18.33032448 1.03641875 20.63801796 1.07619297 23 1 C23.33 2.32 23.66 3.64 24 5 C23.34 5 22.68 5 22 5 C22.495 13.415 22.495 13.415 23 22 C23.99 22.33 24.98 22.66 26 23 C26 24.32 26 25.64 26 27 C21.71 27 17.42 27 13 27 C12.67 26.01 12.34 25.02 12 24 C13.32 23.67 14.64 23.34 16 23 C16.02721176 21.10424749 16.04649136 19.20838021 16.0625 17.3125 C16.07990234 15.72888672 16.07990234 15.72888672 16.09765625 14.11328125 C16.00712774 11.22723249 15.84582941 8.75982052 15 6 C14.01 5.34 13.02 4.68 12 4 C12 3.34 12 2.68 12 2 C8.7 2 5.4 2 2 2 C2 2.66 2 3.32 2 4 C2.66 4.33 3.32 4.66 4 5 C3.01 5.33 2.02 5.66 1 6 C-0.0625 4.125 -0.0625 4.125 -1 2 C-0.67 1.34 -0.34 0.68 0 0 Z " fill="#131312" transform="translate(440,189)"/>
<path d="M0 0 C1.17426264 2.34852528 1.11508173 3.73774065 1.09765625 6.3515625 C1.09443359 7.20234375 1.09121094 8.053125 1.08789062 8.9296875 C1.07951172 9.81914062 1.07113281 10.70859375 1.0625 11.625 C1.05798828 12.5221875 1.05347656 13.419375 1.04882812 14.34375 C1.03702591 16.56256648 1.02056155 18.78125018 1 21 C1.99 21 2.98 21 4 21 C4 22.65 4 24.3 4 26 C0.87819599 26.96661363 -1.52083795 26.98988909 -4.75 26.5625 C-5.54921875 26.46066406 -6.3484375 26.35882813 -7.171875 26.25390625 C-7.77515625 26.17011719 -8.3784375 26.08632812 -9 26 C-9.33 24.68 -9.66 23.36 -10 22 C-8.68 22 -7.36 22 -6 22 C-6.08691739 19.22763506 -6.19377361 16.45852922 -6.3125 13.6875 C-6.33505859 12.90181641 -6.35761719 12.11613281 -6.38085938 11.30664062 C-6.41630859 10.54931641 -6.45175781 9.79199219 -6.48828125 9.01171875 C-6.51446533 8.31522217 -6.54064941 7.61872559 -6.56762695 6.90112305 C-7.1127216 4.50436868 -8.19760649 3.61055385 -10 2 C-10 1.67 -10 1.34 -10 1 C-6.59437148 0.22157062 -3.49234244 -0.09978121 0 0 Z " fill="#131313" transform="translate(502,190)"/>
<path d="M0 0 C2.125 3.375 2.125 3.375 3 7 C2.01 8.485 2.01 8.485 1 10 C-1.76276177 9.47731534 -4.3260876 8.89130413 -7 8 C-7.33 7.01 -7.66 6.02 -8 5 C-9.32 5 -10.64 5 -12 5 C-12 3.35 -12 1.7 -12 0 C-8.11579936 -1.45657524 -3.86554121 -1.48737526 0 0 Z M-6 4 C-5 7 -5 7 -5 7 Z " fill="#181717" transform="translate(488,190)"/>
<path d="M0 0 C2.475 0.495 2.475 0.495 5 1 C5.144375 1.78375 5.28875 2.5675 5.4375 3.375 C5.87798925 5.96421018 5.87798925 5.96421018 7 8 C8.89533342 8.46523063 8.89533342 8.46523063 11.0625 8.625 C12.361875 8.74875 13.66125 8.8725 15 9 C14.67 10.32 14.34 11.64 14 13 C8.78832125 14.84930536 4.95116297 12.84744887 0 11 C0 7.37 0 3.74 0 0 Z " fill="#1C1B1B" transform="translate(536,203)"/>
<path d="M0 0 C7.22891566 -0.48192771 7.22891566 -0.48192771 10.5 1.5625 C12 4 12 4 12 11 C7.05 11 2.1 11 -3 11 C-3 10.67 -3 10.34 -3 10 C0.3 10 3.6 10 7 10 C6.67 8.35 6.34 6.7 6 5 C4.35 5.33 2.7 5.66 1 6 C1 5.34 1 4.68 1 4 C1.66 4 2.32 4 3 4 C3 3.01 3 2.02 3 1 C2.01 0.67 1.02 0.34 0 0 Z " fill="#0A0A09" transform="translate(655,191)"/>
<path d="M0 0 C0.88945313 0.10828125 1.77890625 0.2165625 2.6953125 0.328125 C4.875 0.75 4.875 0.75 5.875 1.75 C5.94679964 3.26928038 5.95892007 4.79167482 5.9375 6.3125 C5.92847656 7.13878906 5.91945313 7.96507812 5.91015625 8.81640625 C5.89855469 9.45449219 5.88695312 10.09257812 5.875 10.75 C2.046875 9.015625 2.046875 9.015625 0.5 6.625 C-1.06173657 4.3796417 -1.06173657 4.3796417 -4.3125 4.5 C-5.240625 4.5825 -6.16875 4.665 -7.125 4.75 C-7.455 5.74 -7.785 6.73 -8.125 7.75 C-8.48873032 3.26399269 -8.48873032 3.26399269 -6.93359375 1.06640625 C-4.44220778 -0.74697835 -3.01042538 -0.40373052 0 0 Z " fill="#181818" transform="translate(550.125,189.25)"/>
<path d="M0 0 C2.375 0.25 2.375 0.25 5 1 C6.1875 3 6.1875 3 7 5 C7.66 5.33 8.32 5.66 9 6 C8.67 7.65 8.34 9.3 8 11 C3.38 11 -1.24 11 -6 11 C-6 10.67 -6 10.34 -6 10 C-3.03 10 -0.06 10 3 10 C2.2575 8.3603125 2.2575 8.3603125 1.5 6.6875 C0 3 0 3 0 0 Z " fill="#070706" transform="translate(392,191)"/>
<path d="M0 0 C0 4.95 0 9.9 0 15 C-0.66 14.67 -1.32 14.34 -2 14 C-2.99 14.33 -3.98 14.66 -5 15 C-5.08078641 12.87561661 -5.13909141 10.7503677 -5.1875 8.625 C-5.22230469 7.44164062 -5.25710937 6.25828125 -5.29296875 5.0390625 C-5.19628906 4.03617188 -5.09960938 3.03328125 -5 2 C-2 0 -2 0 0 0 Z " fill="#E41530" transform="translate(207,133)"/>
<path d="M0 0 C1.9375 0.6875 1.9375 0.6875 4 2 C4.875 4.4375 4.875 4.4375 5 7 C4.01 8.485 4.01 8.485 3 10 C1.35 9.67 -0.3 9.34 -2 9 C-3.125 4.25 -3.125 4.25 -2 2 C-1.34 2 -0.68 2 0 2 C0 1.34 0 0.68 0 0 Z " fill="#161615" transform="translate(458,177)"/>
<path d="M0 0 C0.5775 0.226875 1.155 0.45375 1.75 0.6875 C1.75 1.6775 1.75 2.6675 1.75 3.6875 C1.04875 3.77 0.3475 3.8525 -0.375 3.9375 C-3.43471033 4.5662143 -3.43471033 4.5662143 -6.3125 6.75 C-9.25 8.6875 -9.25 8.6875 -13.25 8.6875 C-12.90120368 5.43206771 -12.22866739 4.66876893 -9.6875 2.4375 C-8.883125 1.86 -8.07875 1.2825 -7.25 0.6875 C-6.92 1.3475 -6.59 2.0075 -6.25 2.6875 C-5.6725 2.171875 -5.095 1.65625 -4.5 1.125 C-2.25 -0.3125 -2.25 -0.3125 0 0 Z " fill="#E03145" transform="translate(200.25,67.3125)"/>
<path d="M0 0 C2.625 0.9375 2.625 0.9375 5 2 C4.67 3.98 4.34 5.96 4 8 C2.35 8.33 0.7 8.66 -1 9 C-3 6 -3 6 -2.75 3.375 C-2.5025 2.59125 -2.255 1.8075 -2 1 C-1.34 0.67 -0.68 0.34 0 0 Z " fill="#151515" transform="translate(498,178)"/>
<path d="M0 0 C2.51570636 0.97382182 3.73944098 1.46151135 4.9375 3.9375 C5 6 5 6 3.8125 7.8125 C2 9 2 9 -0.1875 8.6875 C-0.785625 8.460625 -1.38375 8.23375 -2 8 C-2.6875 5.6875 -2.6875 5.6875 -3 3 C-1.5625 1.1875 -1.5625 1.1875 0 0 Z " fill="#131313" transform="translate(831,178)"/>
<path d="M0 0 C5.30363934 0.51742823 8.51475883 2.32610623 13 5 C13.66 5 14.32 5 15 5 C15.66 6.65 16.32 8.3 17 10 C12.97683781 8.51463956 9.38707358 6.60123107 5.6875 4.4375 C4.61886719 3.81746094 3.55023438 3.19742188 2.44921875 2.55859375 C1.64097656 2.04425781 0.83273438 1.52992188 0 1 C0 0.67 0 0.34 0 0 Z " fill="#E1283E" transform="translate(165,208)"/>
<path d="M0 0 C5.77759884 -0.12036664 11.27959989 0.1679418 17 1 C17 1.66 17 2.32 17 3 C16.01 3 15.02 3 14 3 C13.67 3.66 13.34 4.32 13 5 C12.67 4.01 12.34 3.02 12 2 C8.7 2 5.4 2 2 2 C2 2.66 2 3.32 2 4 C2.66 4.33 3.32 4.66 4 5 C3.01 5.33 2.02 5.66 1 6 C-0.0625 4.125 -0.0625 4.125 -1 2 C-0.67 1.34 -0.34 0.68 0 0 Z " fill="#373636" transform="translate(440,189)"/>
<path d="M0 0 C2.475 0.495 2.475 0.495 5 1 C4.47731534 3.76276177 3.89130413 6.3260876 3 9 C2.01 8.67 1.02 8.34 0 8 C0 5.36 0 2.72 0 0 Z " fill="#E01932" transform="translate(203,148)"/>
<path d="M0 0 C0.66 0.33 1.32 0.66 2 1 C2.3235827 7.06417949 2.49955154 11.7506727 -1 17 C-1.66 17.33 -2.32 17.66 -3 18 C-2.86722656 17.45472656 -2.73445312 16.90945312 -2.59765625 16.34765625 C-1.32210753 10.90097013 -0.53036157 5.56879648 0 0 Z " fill="#E03145" transform="translate(220,66)"/>
<path d="M0 0 C-0.99 1.485 -0.99 1.485 -2 3 C-3.87939453 3.2487793 -3.87939453 3.2487793 -6.1328125 3.07421875 C-7.34130859 2.99204102 -7.34130859 2.99204102 -8.57421875 2.90820312 C-9.41597656 2.83537109 -10.25773438 2.76253906 -11.125 2.6875 C-11.97449219 2.62626953 -12.82398438 2.56503906 -13.69921875 2.50195312 C-15.80053665 2.34848609 -17.90045124 2.17602278 -20 2 C-20 1.67 -20 1.34 -20 1 C-17.79187393 0.83060951 -15.58348776 0.66460778 -13.375 0.5 C-12.14523438 0.4071875 -10.91546875 0.314375 -9.6484375 0.21875 C-6.41962143 0.02515931 -3.23321325 -0.03979339 0 0 Z " fill="#DD364A" transform="translate(193,86)"/>
<path d="M0 0 C0.33 0.66 0.66 1.32 1 2 C-2.98060777 3.17076699 -6.91621717 4.25749403 -11 5 C-10.6875 3.0625 -10.6875 3.0625 -10 1 C-6.52674819 -0.1577506 -3.63932552 -0.06866652 0 0 Z " fill="#2A2929" transform="translate(599,189)"/>
<path d="M0 0 C3.63 0 7.26 0 11 0 C10.67 0.66 10.34 1.32 10 2 C10.66 2.66 11.32 3.32 12 4 C10.02 4.66 8.04 5.32 6 6 C5.67 4.35 5.34 2.7 5 1 C3.35 1 1.7 1 0 1 C0 0.67 0 0.34 0 0 Z " fill="#222121" transform="translate(700,190)"/>
<path d="M0 0 C0.33 0.66 0.66 1.32 1 2 C0.01 2 -0.98 2 -2 2 C-2 2.99 -2 3.98 -2 5 C-3.98 5 -5.96 5 -8 5 C-8.33 3.68 -8.66 2.36 -9 1 C-5.92677456 0.08941469 -3.19902639 -0.08886184 0 0 Z " fill="#1C1A1A" transform="translate(394,189)"/>
<path d="M0 0 C0.66 0.33 1.32 0.66 2 1 C-2.05387741 5.81397943 -5.0217942 6.88541926 -11 8 C-8.83385197 5.69125289 -6.60793392 3.94709819 -3.9375 2.25 C-2.89916016 1.57710937 -2.89916016 1.57710937 -1.83984375 0.890625 C-1.23269531 0.59671875 -0.62554687 0.3028125 0 0 Z " fill="#E12E41" transform="translate(149,52)"/>
<path d="M0 0 C0.33 0.66 0.66 1.32 1 2 C3.64 2 6.28 2 9 2 C9 2.66 9 3.32 9 4 C4.05 4 -0.9 4 -6 4 C-4.63772207 1.27544414 -3.11734545 0 0 0 Z " fill="#1E201F" transform="translate(791,143)"/>
<path d="M0 0 C1.48521677 0.75911079 2.96303425 1.53271234 4.4375 2.3125 C5.26121094 2.74175781 6.08492187 3.17101562 6.93359375 3.61328125 C9 5 9 5 10 8 C5.69235185 6.43358249 1.93828536 4.31663844 -2 2 C-1.34 1.34 -0.68 0.68 0 0 Z " fill="#E2283D" transform="translate(191,221)"/>
<path d="M0 0 C2.31 0 4.62 0 7 0 C6.67 0.66 6.34 1.32 6 2 C3.03 1.505 3.03 1.505 0 1 C0 0.67 0 0.34 0 0 Z M6 2 C6 2.66 6 3.32 6 4 C3.08517222 4.80967438 1.53886783 5.21845993 -1.3125 4.0625 C-1.869375 3.711875 -2.42625 3.36125 -3 3 C0.07322544 2.08941469 2.80097361 1.91113816 6 2 Z " fill="#252525" transform="translate(544,212)"/>
<path d="M0 0 C0.99 0.66 1.98 1.32 3 2 C-0.63 3.98 -4.26 5.96 -8 8 C-7.67 6.68 -7.34 5.36 -7 4 C-5.02 3.67 -3.04 3.34 -1 3 C-0.67 2.01 -0.34 1.02 0 0 Z " fill="#E02D41" transform="translate(231,218)"/>
<path d="M0 0 C2.64 0 5.28 0 8 0 C7.67 0.99 7.34 1.98 7 3 C6.05125 2.938125 5.1025 2.87625 4.125 2.8125 C2.578125 2.9053125 2.578125 2.9053125 1 3 C0.34 3.99 -0.32 4.98 -1 6 C-0.67 4.02 -0.34 2.04 0 0 Z " fill="#2C2B2B" transform="translate(574,220)"/>
<path d="M0 0 C0.33 0 0.66 0 1 0 C1 1.98 1 3.96 1 6 C-0.98 6.99 -0.98 6.99 -3 8 C-2.67 7.01 -2.34 6.02 -2 5 C-3.65 5 -5.3 5 -7 5 C-6.67 4.34 -6.34 3.68 -6 3 C-4.02 3 -2.04 3 0 3 C0 2.01 0 1.02 0 0 Z " fill="#292928" transform="translate(853,208)"/>
<path d="M0 0 C0.99 0.33 1.98 0.66 3 1 C3 4.63 3 8.26 3 12 C1.68 12.33 0.36 12.66 -1 13 C-0.67 12.01 -0.34 11.02 0 10 C0.06802967 8.27204648 0.08495645 6.54164635 0.0625 4.8125 C0.05347656 3.91144531 0.04445313 3.01039063 0.03515625 2.08203125 C0.02355469 1.39496094 0.01195312 0.70789063 0 0 Z " fill="#232120" transform="translate(371,179)"/>
<path d="M0 0 C1.65 0.33 3.3 0.66 5 1 C3.68 1.33 2.36 1.66 1 2 C1 4.31 1 6.62 1 9 C-0.5 7.75 -0.5 7.75 -2 6 C-2 4.68 -2 3.36 -2 2 C-1.34 2 -0.68 2 0 2 C0 1.34 0 0.68 0 0 Z " fill="#4F383B" transform="translate(346,62)"/>
<path d="M0 0 C4.29 0.33 8.58 0.66 13 1 C13 1.33 13 1.66 13 2 C4.57142857 3.42857143 4.57142857 3.42857143 0 1 C0 0.67 0 0.34 0 0 Z " fill="#DF2D43" transform="translate(171,185)"/>
<path d="M0 0 C0.66 0.33 1.32 0.66 2 1 C0.90716423 2.03295436 -0.19970579 3.05107835 -1.3125 4.0625 C-1.92738281 4.63097656 -2.54226563 5.19945312 -3.17578125 5.78515625 C-3.77777344 6.18605469 -4.37976563 6.58695313 -5 7 C-5.99 6.67 -6.98 6.34 -8 6 C-5.33333333 4 -2.66666667 2 0 0 Z " fill="#DF2B40" transform="translate(268,171)"/>
<path d="M0 0 C0.66 0.33 1.32 0.66 2 1 C2 1.99 2 2.98 2 4 C-0.95664519 5.4783226 -3.74229737 5.06032783 -7 5 C-6.67 4.34 -6.34 3.68 -6 3 C-4.35 3.33 -2.7 3.66 -1 4 C-1.33 3.01 -1.66 2.02 -2 1 C-1.34 0.67 -0.68 0.34 0 0 Z " fill="#313232" transform="translate(862,211)"/>
<path d="M0 0 C0.33 0 0.66 0 1 0 C1.33 2.64 1.66 5.28 2 8 C0.68 8.99 -0.64 9.98 -2 11 C-1.34 7.37 -0.68 3.74 0 0 Z " fill="#E03144" transform="translate(204,69)"/>
<path d="M0 0 C0.99 0.495 0.99 0.495 2 1 C2 2.32 2 3.64 2 5 C2.66 5 3.32 5 4 5 C4.33 5.99 4.66 6.98 5 8 C4.01 9.485 4.01 9.485 3 11 C0 4.5 0 4.5 0 0 Z " fill="#E1293F" transform="translate(232,68)"/>
<path d="M0 0 C3.37503669 1.1858237 5.64722731 2.27573689 8 5 C2.46153846 4.38461538 2.46153846 4.38461538 0.125 2.4375 C-0.24625 1.963125 -0.6175 1.48875 -1 1 C-0.67 0.67 -0.34 0.34 0 0 Z " fill="#DF2C41" transform="translate(258,47)"/>
<path d="M0 0 C0.66 0.66 1.32 1.32 2 2 C1.01 3.485 1.01 3.485 0 5 C-1.32 5 -2.64 5 -4 5 C-4 4.01 -4 3.02 -4 2 C-2.68 1.34 -1.36 0.68 0 0 Z " fill="#E3293D" transform="translate(191,71)"/>
<path d="M0 0 C0.99 0.33 1.98 0.66 3 1 C3 4.3 3 7.6 3 11 C2.67 11 2.34 11 2 11 C1.34 7.37 0.68 3.74 0 0 Z " fill="#DE2E42" transform="translate(280,129)"/>
<path d="M0 0 C2.38564077 0.57584432 4.66682784 1.22227595 7 2 C7.33 2.99 7.66 3.98 8 5 C2.25 3.125 2.25 3.125 0 2 C0 1.34 0 0.68 0 0 Z " fill="#DF2C41" transform="translate(258,106)"/>
<path d="M0 0 C1.32 0 2.64 0 4 0 C3.67 0.99 3.34 1.98 3 3 C1.68 2.34 0.36 1.68 -1 1 C-0.67 0.67 -0.34 0.34 0 0 Z " fill="#DC3F52" transform="translate(193,58)"/>
<path d="M0 0 C0.99 0 1.98 0 3 0 C2.67 0.99 2.34 1.98 2 3 C1.34 2.67 0.68 2.34 0 2 C0 1.34 0 0.68 0 0 Z " fill="#3B3C3E" transform="translate(805,220)"/>
<path d="M0 0 C0.66 0.66 1.32 1.32 2 2 C0.68 2.33 -0.64 2.66 -2 3 C-1.34 2.01 -0.68 1.02 0 0 Z " fill="#3C3A3A" transform="translate(848,197)"/>
<path d="M0 0 C0.66 0 1.32 0 2 0 C1.67 0.99 1.34 1.98 1 3 C0.34 2.34 -0.32 1.68 -1 1 C-0.67 0.67 -0.34 0.34 0 0 Z " fill="#4A2F30" transform="translate(353,143)"/>
<path d="M0 0 C1.98 0 3.96 0 6 0 C6 0.33 6 0.66 6 1 C4.02 1 2.04 1 0 1 C0 0.67 0 0.34 0 0 Z " fill="#262524" transform="translate(632,124)"/>
<path d="M0 0 C0.99 0.495 0.99 0.495 2 1 C2 1.66 2 2.32 2 3 C1.34 3 0.68 3 0 3 C0 2.01 0 1.02 0 0 Z " fill="#3B3A3B" transform="translate(503,206)"/>
<path d="M0 0 C0.33 0.99 0.66 1.98 1 3 C0.34 3 -0.32 3 -1 3 C-0.67 2.01 -0.34 1.02 0 0 Z " fill="#292726" transform="translate(433,142)"/>
<path d="M0 0 C0.99 0 1.98 0 3 0 C3 0.66 3 1.32 3 2 C2.01 1.67 1.02 1.34 0 1 C0 0.67 0 0.34 0 0 Z " fill="#473333" transform="translate(352,73)"/>
<path d="M0 0 C0.66 0 1.32 0 2 0 C2 0.99 2 1.98 2 3 C1.34 2.67 0.68 2.34 0 2 C0 1.34 0 0.68 0 0 Z " fill="#DC3E53" transform="translate(192,61)"/>
<path d="M0 0 C0.99 0.495 0.99 0.495 2 1 C1.67 1.66 1.34 2.32 1 3 C0.67 2.01 0.34 1.02 0 0 Z " fill="#40403E" transform="translate(794,219)"/>
<path d="M0 0 C0.66 0 1.32 0 2 0 C2 0.66 2 1.32 2 2 C1.34 2 0.68 2 0 2 C0 1.34 0 0.68 0 0 Z " fill="#434343" transform="translate(824,217)"/>
<path d="M0 0 C0.66 0 1.32 0 2 0 C2 0.66 2 1.32 2 2 C1.34 2 0.68 2 0 2 C0 1.34 0 0.68 0 0 Z " fill="#484747" transform="translate(400,213)"/>
<path d="M0 0 C4 1 4 1 4 1 Z " fill="#383837" transform="translate(488,205)"/>
<path d="M0 0 C0.66 0.66 1.32 1.32 2 2 C1.01 2.495 1.01 2.495 0 3 C0 2.01 0 1.02 0 0 Z " fill="#323431" transform="translate(728,190)"/>
<path d="M0 0 C0.99 0.33 1.98 0.66 3 1 C2.01 1 1.02 1 0 1 C0 0.67 0 0.34 0 0 Z " fill="#2C2B2C" transform="translate(720,154)"/>
<path d="M0 0 C1 4 1 4 1 4 Z " fill="#282627" transform="translate(584,118)"/>
<path d="M0 0 C0.99 0 1.98 0 3 0 C2.67 0.66 2.34 1.32 2 2 C1.34 1.34 0.68 0.68 0 0 Z " fill="#292726" transform="translate(413,89)"/>
<path d="M0 0 C4 1 4 1 4 1 Z " fill="#D94253" transform="translate(183,85)"/>
<path d="M0 0 C4 1 4 1 4 1 Z " fill="#302C2B" transform="translate(427,68)"/>
<path d="M0 0 C0.33 0.66 0.66 1.32 1 2 C0.34 1.67 -0.32 1.34 -1 1 C-0.67 0.67 -0.34 0.34 0 0 Z " fill="#373837" transform="translate(756,209)"/>
<path d="" fill="#353535" transform="translate(0,0)"/>
<path d="M0 0 C0.33 0.66 0.66 1.32 1 2 C0.34 1.67 -0.32 1.34 -1 1 C-0.67 0.67 -0.34 0.34 0 0 Z " fill="#353435" transform="translate(477,195)"/>
<path d="" fill="#39393C" transform="translate(0,0)"/>
<path d="M0 0 C0.99 0.495 0.99 0.495 2 1 C1.01 1.495 1.01 1.495 0 2 C0 1.34 0 0.68 0 0 Z " fill="#373737" transform="translate(537,191)"/>
<path d="M0 0 C0.66 0 1.32 0 2 0 C1.67 0.66 1.34 1.32 1 2 C0.67 1.34 0.34 0.68 0 0 Z " fill="#3E3939" transform="translate(358,184)"/>
<path d="M0 0 C3 1 3 1 3 1 Z " fill="#2D2C2D" transform="translate(521,154)"/>
<path d="M0 0 C0.66 0 1.32 0 2 0 C1.67 0.66 1.34 1.32 1 2 C0.67 1.34 0.34 0.68 0 0 Z " fill="#DC3F53" transform="translate(201,106)"/>
<path d="M0 0 C0.66 0 1.32 0 2 0 C1.67 0.66 1.34 1.32 1 2 C0.67 1.34 0.34 0.68 0 0 Z " fill="#2C2C2B" transform="translate(872,105)"/>
<path d="" fill="#292828" transform="translate(0,0)"/>
<path d="M0 0 C3 1 3 1 3 1 Z " fill="#2D2D2C" transform="translate(861,97)"/>
<path d="M0 0 C3 1 3 1 3 1 Z " fill="#373A39" transform="translate(816,88)"/>
<path d="M0 0 C0.99 0.495 0.99 0.495 2 1 C1.01 1.495 1.01 1.495 0 2 C0 1.34 0 0.68 0 0 Z " fill="#2D2C2A" transform="translate(433,85)"/>
<path d="M0 0 C0.66 0.66 1.32 1.32 2 2 C1.34 2 0.68 2 0 2 C0 1.34 0 0.68 0 0 Z " fill="#DD4051" transform="translate(174,80)"/>
<path d="M0 0 C2 1 2 1 2 1 Z " fill="#474644" transform="translate(818,226)"/>
<path d="" fill="#3A3B3D" transform="translate(0,0)"/>
<path d="M0 0 C2 1 2 1 2 1 Z " fill="#444445" transform="translate(737,218)"/>
<path d="M0 0 C2 1 2 1 2 1 Z " fill="#464544" transform="translate(734,217)"/>
<path d="M0 0 C2 1 2 1 2 1 Z " fill="#474848" transform="translate(654,217)"/>
<path d="M0 0 C2 1 2 1 2 1 Z " fill="#3B3B3C" transform="translate(792,214)"/>
<path d="" fill="#464845" transform="translate(0,0)"/>
<path d="" fill="#424240" transform="translate(0,0)"/>
<path d="" fill="#3C3B3B" transform="translate(0,0)"/>
<path d="" fill="#3D3C3A" transform="translate(0,0)"/>
<path d="M0 0 C2 1 2 1 2 1 Z " fill="#3D3B3C" transform="translate(849,207)"/>
<path d="" fill="#393937" transform="translate(0,0)"/>
<path d="M0 0 C2 1 2 1 2 1 Z " fill="#393C3A" transform="translate(577,206)"/>
<path d="" fill="#383735" transform="translate(0,0)"/>
<path d="M0 0 C2 1 2 1 2 1 Z " fill="#3D3E3E" transform="translate(390,204)"/>
<path d="" fill="#3C3A3A" transform="translate(0,0)"/>
<path d="" fill="#3E3D3D" transform="translate(0,0)"/>
<path d="M0 0 C2 1 2 1 2 1 Z " fill="#413D3D" transform="translate(360,202)"/>
<path d="" fill="#3B3B3A" transform="translate(0,0)"/>
<path d="M0 0 C2 1 2 1 2 1 Z " fill="#3A3839" transform="translate(465,200)"/>
<path d="M0 0 C2 1 2 1 2 1 Z " fill="#3F3D39" transform="translate(851,198)"/>
<path d="M0 0 C2 1 2 1 2 1 Z " fill="#333534" transform="translate(658,198)"/>
<path d="M0 0 C2 1 2 1 2 1 Z " fill="#373534" transform="translate(652,198)"/>
<path d="M0 0 C2 1 2 1 2 1 Z " fill="#393B3A" transform="translate(587,198)"/>
<path d="" fill="#3B393A" transform="translate(0,0)"/>
<path d="" fill="#37383A" transform="translate(0,0)"/>
<path d="M0 0 C2 1 2 1 2 1 Z " fill="#464341" transform="translate(352,198)"/>
<path d="" fill="#322F2E" transform="translate(0,0)"/>
<path d="" fill="#353334" transform="translate(0,0)"/>
<path d="M0 0 C2 1 2 1 2 1 Z " fill="#353433" transform="translate(708,196)"/>
<path d="" fill="#3C3835" transform="translate(0,0)"/>
<path d="M0 0 C2 1 2 1 2 1 Z " fill="#31322E" transform="translate(809,194)"/>
<path d="" fill="#3A3337" transform="translate(0,0)"/>
<path d="" fill="#343435" transform="translate(0,0)"/>
<path d="" fill="#313031" transform="translate(0,0)"/>
<path d="" fill="#3A3737" transform="translate(0,0)"/>
<path d="M0 0 C2 1 2 1 2 1 Z " fill="#3D3D3B" transform="translate(855,189)"/>
<path d="M0 0 C2 1 2 1 2 1 Z " fill="#313132" transform="translate(803,189)"/>
<path d="M0 0 C2 1 2 1 2 1 Z " fill="#343332" transform="translate(732,189)"/>
<path d="M0 0 C2 1 2 1 2 1 Z " fill="#373736" transform="translate(495,189)"/>
<path d="M0 0 C2 1 2 1 2 1 Z " fill="#5C4144" transform="translate(346,182)"/>
<path d="M0 0 C2 1 2 1 2 1 Z " fill="#403736" transform="translate(358,176)"/>
<path d="" fill="#DE4456" transform="translate(0,0)"/>
<path d="M0 0 C2 1 2 1 2 1 Z " fill="#2D2C2A" transform="translate(725,156)"/>
<path d="M0 0 C2 1 2 1 2 1 Z " fill="#2C2829" transform="translate(668,156)"/>
<path d="M0 0 C2 1 2 1 2 1 Z " fill="#2D292A" transform="translate(380,156)"/>
<path d="M0 0 C2 1 2 1 2 1 Z " fill="#2E2929" transform="translate(375,156)"/>
<path d="" fill="#DD4256" transform="translate(0,0)"/>
<path d="" fill="#2A2729" transform="translate(0,0)"/>
<path d="M0 0 C2 1 2 1 2 1 Z " fill="#282827" transform="translate(416,127)"/>
<path d="M0 0 C2 1 2 1 2 1 Z " fill="#262424" transform="translate(756,124)"/>
<path d="M0 0 C2 1 2 1 2 1 Z " fill="#232323" transform="translate(628,124)"/>
<path d="" fill="#292829" transform="translate(0,0)"/>
<path d="" fill="#262625" transform="translate(0,0)"/>
<path d="" fill="#292725" transform="translate(0,0)"/>
<path d="" fill="#2A2A29" transform="translate(0,0)"/>
<path d="M0 0 C2 1 2 1 2 1 Z " fill="#272324" transform="translate(389,113)"/>
<path d="" fill="#2C2929" transform="translate(0,0)"/>
<path d="M0 0 C2 1 2 1 2 1 Z " fill="#DE3F51" transform="translate(264,112)"/>
<path d="" fill="#DE4052" transform="translate(0,0)"/>
<path d="" fill="#242524" transform="translate(0,0)"/>
<path d="M0 0 C2 1 2 1 2 1 Z " fill="#DB3D51" transform="translate(241,106)"/>
<path d="" fill="#262626" transform="translate(0,0)"/>
<path d="" fill="#2C2929" transform="translate(0,0)"/>
<path d="" fill="#2C2A28" transform="translate(0,0)"/>
<path d="" fill="#DB4053" transform="translate(0,0)"/>
<path d="M0 0 C2 1 2 1 2 1 Z " fill="#DD4155" transform="translate(212,89)"/>
<path d="M0 0 C2 1 2 1 2 1 Z " fill="#3B3D3B" transform="translate(848,88)"/>
<path d="M0 0 C2 1 2 1 2 1 Z " fill="#393936" transform="translate(808,88)"/>
<path d="M0 0 C2 1 2 1 2 1 Z " fill="#393938" transform="translate(791,88)"/>
<path d="M0 0 C2 1 2 1 2 1 Z " fill="#383936" transform="translate(786,88)"/>
<path d="M0 0 C2 1 2 1 2 1 Z " fill="#DC4256" transform="translate(233,86)"/>
<path d="M0 0 C2 1 2 1 2 1 Z " fill="#DE3F52" transform="translate(180,85)"/>
<path d="" fill="#DB3D50" transform="translate(0,0)"/>
<path d="M0 0 C2 1 2 1 2 1 Z " fill="#5E3E41" transform="translate(345,72)"/>
<path d="" fill="#DE3E52" transform="translate(0,0)"/>
<path d="M0 0 C2 1 2 1 2 1 Z " fill="#3C3B39" transform="translate(564,63)"/>
<path d="M0 0 C2 1 2 1 2 1 Z " fill="#704C4F" transform="translate(344,61)"/>
<path d="M0 0 C2 1 2 1 2 1 Z " fill="#D55261" transform="translate(152,45)"/>
<path d="" fill="#D85B6A" transform="translate(0,0)"/>
<path d="" fill="#484748" transform="translate(0,0)"/>
<path d="" fill="#484848" transform="translate(0,0)"/>
<path d="" fill="#D85160" transform="translate(0,0)"/>
<path d="" fill="#504F50" transform="translate(0,0)"/>
<path d="" fill="#454341" transform="translate(0,0)"/>
<path d="" fill="#3E3E3D" transform="translate(0,0)"/>
<path d="" fill="#413E40" transform="translate(0,0)"/>
<path d="" fill="#404141" transform="translate(0,0)"/>
<path d="" fill="#494A4B" transform="translate(0,0)"/>
<path d="" fill="#484D48" transform="translate(0,0)"/>
<path d="" fill="#4D4E4D" transform="translate(0,0)"/>
<path d="" fill="#565655" transform="translate(0,0)"/>
<path d="" fill="#5F5A5A" transform="translate(0,0)"/>
<path d="" fill="#5F5A5A" transform="translate(0,0)"/>
<path d="" fill="#615A5B" transform="translate(0,0)"/>
<path d="" fill="#D75763" transform="translate(0,0)"/>
<path d="" fill="#4E5050" transform="translate(0,0)"/>
<path d="" fill="#4D4D4E" transform="translate(0,0)"/>
<path d="" fill="#494C48" transform="translate(0,0)"/>
<path d="" fill="#47494A" transform="translate(0,0)"/>
<path d="" fill="#474547" transform="translate(0,0)"/>
<path d="" fill="#4C494A" transform="translate(0,0)"/>
<path d="" fill="#695E5E" transform="translate(0,0)"/>
<path d="" fill="#464445" transform="translate(0,0)"/>
<path d="" fill="#3D3C3E" transform="translate(0,0)"/>
<path d="" fill="#3E3D3F" transform="translate(0,0)"/>
<path d="" fill="#484748" transform="translate(0,0)"/>
<path d="" fill="#484748" transform="translate(0,0)"/>
<path d="" fill="#474747" transform="translate(0,0)"/>
<path d="" fill="#48474A" transform="translate(0,0)"/>
<path d="" fill="#474648" transform="translate(0,0)"/>
<path d="" fill="#464547" transform="translate(0,0)"/>
<path d="" fill="#464948" transform="translate(0,0)"/>
<path d="" fill="#474748" transform="translate(0,0)"/>
<path d="" fill="#D85363" transform="translate(0,0)"/>
<path d="" fill="#4E504F" transform="translate(0,0)"/>
<path d="" fill="#464748" transform="translate(0,0)"/>
<path d="" fill="#474846" transform="translate(0,0)"/>
<path d="" fill="#464846" transform="translate(0,0)"/>
<path d="" fill="#484947" transform="translate(0,0)"/>
<path d="" fill="#494B4C" transform="translate(0,0)"/>
<path d="" fill="#64595C" transform="translate(0,0)"/>
<path d="" fill="#404442" transform="translate(0,0)"/>
<path d="" fill="#3F4140" transform="translate(0,0)"/>
<path d="" fill="#474748" transform="translate(0,0)"/>
<path d="" fill="#424544" transform="translate(0,0)"/>
<path d="" fill="#474546" transform="translate(0,0)"/>
<path d="" fill="#454441" transform="translate(0,0)"/>
<path d="" fill="#474645" transform="translate(0,0)"/>
<path d="" fill="#6F6060" transform="translate(0,0)"/>
<path d="" fill="#735F63" transform="translate(0,0)"/>
<path d="" fill="#474646" transform="translate(0,0)"/>
<path d="" fill="#404343" transform="translate(0,0)"/>
<path d="" fill="#434443" transform="translate(0,0)"/>
<path d="" fill="#414241" transform="translate(0,0)"/>
<path d="" fill="#393A39" transform="translate(0,0)"/>
<path d="" fill="#3B3C3A" transform="translate(0,0)"/>
<path d="" fill="#424243" transform="translate(0,0)"/>
<path d="" fill="#474947" transform="translate(0,0)"/>
<path d="" fill="#705E5C" transform="translate(0,0)"/>
<path d="" fill="#3B3A3B" transform="translate(0,0)"/>
<path d="" fill="#3B3A3C" transform="translate(0,0)"/>
<path d="" fill="#3E3F3E" transform="translate(0,0)"/>
<path d="" fill="#404441" transform="translate(0,0)"/>
<path d="" fill="#424242" transform="translate(0,0)"/>
<path d="" fill="#3E3C3C" transform="translate(0,0)"/>
<path d="" fill="#454543" transform="translate(0,0)"/>
<path d="" fill="#D24857" transform="translate(0,0)"/>
<path d="" fill="#403D40" transform="translate(0,0)"/>
<path d="" fill="#3E413F" transform="translate(0,0)"/>
<path d="" fill="#454847" transform="translate(0,0)"/>
<path d="" fill="#3D3B3E" transform="translate(0,0)"/>
<path d="" fill="#3A3839" transform="translate(0,0)"/>
<path d="" fill="#39393B" transform="translate(0,0)"/>
<path d="" fill="#404141" transform="translate(0,0)"/>
<path d="" fill="#3D3B3E" transform="translate(0,0)"/>
<path d="" fill="#424041" transform="translate(0,0)"/>
<path d="" fill="#3D3C3D" transform="translate(0,0)"/>
<path d="" fill="#434041" transform="translate(0,0)"/>
<path d="" fill="#D6515F" transform="translate(0,0)"/>
<path d="" fill="#3A3B3B" transform="translate(0,0)"/>
<path d="" fill="#40403E" transform="translate(0,0)"/>
<path d="" fill="#3B3D3C" transform="translate(0,0)"/>
<path d="" fill="#3E3F3F" transform="translate(0,0)"/>
<path d="" fill="#404140" transform="translate(0,0)"/>
<path d="" fill="#41413E" transform="translate(0,0)"/>
<path d="" fill="#3F403E" transform="translate(0,0)"/>
<path d="" fill="#393638" transform="translate(0,0)"/>
<path d="" fill="#393939" transform="translate(0,0)"/>
<path d="" fill="#3B3D3B" transform="translate(0,0)"/>
<path d="" fill="#3C3C3D" transform="translate(0,0)"/>
<path d="" fill="#3C3B3C" transform="translate(0,0)"/>
<path d="" fill="#6A5756" transform="translate(0,0)"/>
<path d="" fill="#393736" transform="translate(0,0)"/>
<path d="" fill="#373A39" transform="translate(0,0)"/>
<path d="" fill="#373839" transform="translate(0,0)"/>
<path d="" fill="#373838" transform="translate(0,0)"/>
<path d="" fill="#3B3C3D" transform="translate(0,0)"/>
<path d="" fill="#3D3D3D" transform="translate(0,0)"/>
<path d="" fill="#3D3D3D" transform="translate(0,0)"/>
<path d="" fill="#3A3737" transform="translate(0,0)"/>
<path d="" fill="#393A3A" transform="translate(0,0)"/>
<path d="" fill="#3F3C3B" transform="translate(0,0)"/>
<path d="" fill="#3A3A3A" transform="translate(0,0)"/>
<path d="" fill="#383836" transform="translate(0,0)"/>
<path d="" fill="#363637" transform="translate(0,0)"/>
<path d="" fill="#3A393A" transform="translate(0,0)"/>
<path d="" fill="#3D3D3D" transform="translate(0,0)"/>
<path d="" fill="#3F3C3D" transform="translate(0,0)"/>
<path d="" fill="#403E3E" transform="translate(0,0)"/>
<path d="" fill="#373736" transform="translate(0,0)"/>
<path d="" fill="#383737" transform="translate(0,0)"/>
<path d="" fill="#3A3D3C" transform="translate(0,0)"/>
<path d="" fill="#424345" transform="translate(0,0)"/>
<path d="" fill="#383738" transform="translate(0,0)"/>
<path d="" fill="#383737" transform="translate(0,0)"/>
<path d="" fill="#3C3734" transform="translate(0,0)"/>
<path d="" fill="#393C3C" transform="translate(0,0)"/>
<path d="" fill="#3C3D3E" transform="translate(0,0)"/>
<path d="" fill="#414241" transform="translate(0,0)"/>
<path d="" fill="#D94D5B" transform="translate(0,0)"/>
<path d="" fill="#3B3D3D" transform="translate(0,0)"/>
<path d="" fill="#383736" transform="translate(0,0)"/>
<path d="" fill="#363736" transform="translate(0,0)"/>
<path d="" fill="#3C3D3A" transform="translate(0,0)"/>
<path d="" fill="#3A3A3B" transform="translate(0,0)"/>
<path d="" fill="#32302E" transform="translate(0,0)"/>
<path d="" fill="#393737" transform="translate(0,0)"/>
<path d="" fill="#3C3A37" transform="translate(0,0)"/>
<path d="" fill="#3C3B40" transform="translate(0,0)"/>
<path d="" fill="#363837" transform="translate(0,0)"/>
<path d="" fill="#363533" transform="translate(0,0)"/>
<path d="" fill="#363636" transform="translate(0,0)"/>
<path d="" fill="#3D403E" transform="translate(0,0)"/>
<path d="" fill="#343232" transform="translate(0,0)"/>
<path d="" fill="#3A3735" transform="translate(0,0)"/>
<path d="" fill="#323433" transform="translate(0,0)"/>
<path d="" fill="#343633" transform="translate(0,0)"/>
<path d="" fill="#313333" transform="translate(0,0)"/>
<path d="" fill="#363536" transform="translate(0,0)"/>
<path d="" fill="#363435" transform="translate(0,0)"/>
<path d="" fill="#3B3B3C" transform="translate(0,0)"/>
<path d="" fill="#373437" transform="translate(0,0)"/>
<path d="" fill="#D75665" transform="translate(0,0)"/>
<path d="" fill="#3B3B38" transform="translate(0,0)"/>
<path d="" fill="#3A3836" transform="translate(0,0)"/>
<path d="" fill="#3A3937" transform="translate(0,0)"/>
<path d="" fill="#323131" transform="translate(0,0)"/>
<path d="" fill="#302E31" transform="translate(0,0)"/>
<path d="" fill="#342F35" transform="translate(0,0)"/>
<path d="" fill="#383539" transform="translate(0,0)"/>
<path d="" fill="#383A3A" transform="translate(0,0)"/>
<path d="" fill="#3C3A39" transform="translate(0,0)"/>
<path d="" fill="#383B3C" transform="translate(0,0)"/>
<path d="" fill="#3C3B3A" transform="translate(0,0)"/>
<path d="" fill="#3C3A39" transform="translate(0,0)"/>
<path d="" fill="#363433" transform="translate(0,0)"/>
<path d="" fill="#312D2D" transform="translate(0,0)"/>
<path d="" fill="#534949" transform="translate(0,0)"/>
<path d="" fill="#D74C5A" transform="translate(0,0)"/>
<path d="" fill="#373638" transform="translate(0,0)"/>
<path d="" fill="#302E2F" transform="translate(0,0)"/>
<path d="" fill="#313132" transform="translate(0,0)"/>
<path d="" fill="#363636" transform="translate(0,0)"/>
<path d="" fill="#383737" transform="translate(0,0)"/>
<path d="" fill="#343234" transform="translate(0,0)"/>
<path d="" fill="#363532" transform="translate(0,0)"/>
<path d="" fill="#353332" transform="translate(0,0)"/>
<path d="" fill="#353534" transform="translate(0,0)"/>
<path d="" fill="#3C393B" transform="translate(0,0)"/>
<path d="" fill="#554848" transform="translate(0,0)"/>
<path d="" fill="#D34A5A" transform="translate(0,0)"/>
<path d="" fill="#DA4F5E" transform="translate(0,0)"/>
<path d="" fill="#D65561" transform="translate(0,0)"/>
<path d="" fill="#313131" transform="translate(0,0)"/>
<path d="" fill="#3A3636" transform="translate(0,0)"/>
<path d="" fill="#D54F5D" transform="translate(0,0)"/>
<path d="" fill="#3D3737" transform="translate(0,0)"/>
<path d="" fill="#3B3739" transform="translate(0,0)"/>
<path d="" fill="#5A4749" transform="translate(0,0)"/>
<path d="" fill="#343634" transform="translate(0,0)"/>
<path d="" fill="#393535" transform="translate(0,0)"/>
<path d="" fill="#3A3A38" transform="translate(0,0)"/>
<path d="" fill="#624D4F" transform="translate(0,0)"/>
<path d="" fill="#2E3430" transform="translate(0,0)"/>
<path d="" fill="#3A3837" transform="translate(0,0)"/>
<path d="" fill="#39393A" transform="translate(0,0)"/>
<path d="" fill="#353133" transform="translate(0,0)"/>
<path d="" fill="#3A3638" transform="translate(0,0)"/>
<path d="" fill="#343333" transform="translate(0,0)"/>
<path d="" fill="#343232" transform="translate(0,0)"/>
<path d="" fill="#3A3439" transform="translate(0,0)"/>
<path d="" fill="#3B3A39" transform="translate(0,0)"/>
<path d="" fill="#393934" transform="translate(0,0)"/>
<path d="" fill="#3E3838" transform="translate(0,0)"/>
<path d="" fill="#363633" transform="translate(0,0)"/>
<path d="" fill="#333233" transform="translate(0,0)"/>
<path d="" fill="#302F30" transform="translate(0,0)"/>
<path d="" fill="#323233" transform="translate(0,0)"/>
<path d="" fill="#322E2F" transform="translate(0,0)"/>
<path d="" fill="#3A3034" transform="translate(0,0)"/>
<path d="" fill="#383533" transform="translate(0,0)"/>
<path d="" fill="#363435" transform="translate(0,0)"/>
<path d="" fill="#353130" transform="translate(0,0)"/>
<path d="" fill="#373537" transform="translate(0,0)"/>
<path d="" fill="#3D3A39" transform="translate(0,0)"/>
<path d="" fill="#323030" transform="translate(0,0)"/>
<path d="" fill="#383638" transform="translate(0,0)"/>
<path d="" fill="#353631" transform="translate(0,0)"/>
<path d="" fill="#343330" transform="translate(0,0)"/>
<path d="" fill="#5C4547" transform="translate(0,0)"/>
<path d="" fill="#353333" transform="translate(0,0)"/>
<path d="" fill="#343536" transform="translate(0,0)"/>
<path d="" fill="#373535" transform="translate(0,0)"/>
<path d="" fill="#363334" transform="translate(0,0)"/>
<path d="" fill="#5E4447" transform="translate(0,0)"/>
<path d="" fill="#D4485B" transform="translate(0,0)"/>
<path d="" fill="#343434" transform="translate(0,0)"/>
<path d="" fill="#373432" transform="translate(0,0)"/>
<path d="" fill="#393636" transform="translate(0,0)"/>
<path d="" fill="#DA4352" transform="translate(0,0)"/>
<path d="" fill="#594344" transform="translate(0,0)"/>
<path d="" fill="#DA4757" transform="translate(0,0)"/>
<path d="" fill="#323234" transform="translate(0,0)"/>
<path d="" fill="#DC4454" transform="translate(0,0)"/>
<path d="" fill="#5A4044" transform="translate(0,0)"/>
<path d="" fill="#363634" transform="translate(0,0)"/>
<path d="" fill="#353634" transform="translate(0,0)"/>
<path d="" fill="#D85766" transform="translate(0,0)"/>
<path d="" fill="#333633" transform="translate(0,0)"/>
<path d="" fill="#363533" transform="translate(0,0)"/>
<path d="" fill="#3A3334" transform="translate(0,0)"/>
<path d="" fill="#463D3C" transform="translate(0,0)"/>
<path d="" fill="#DE4557" transform="translate(0,0)"/>
<path d="" fill="#353735" transform="translate(0,0)"/>
<path d="" fill="#333332" transform="translate(0,0)"/>
<path d="" fill="#343333" transform="translate(0,0)"/>
<path d="" fill="#353333" transform="translate(0,0)"/>
<path d="" fill="#3D3836" transform="translate(0,0)"/>
<path d="" fill="#DC4356" transform="translate(0,0)"/>
<path d="" fill="#DC4354" transform="translate(0,0)"/>
<path d="" fill="#DE4457" transform="translate(0,0)"/>
<path d="" fill="#333233" transform="translate(0,0)"/>
<path d="" fill="#303132" transform="translate(0,0)"/>
<path d="" fill="#463C37" transform="translate(0,0)"/>
<path d="" fill="#4A3A3E" transform="translate(0,0)"/>
<path d="" fill="#DC4555" transform="translate(0,0)"/>
<path d="" fill="#DD4556" transform="translate(0,0)"/>
<path d="" fill="#323130" transform="translate(0,0)"/>
<path d="" fill="#323334" transform="translate(0,0)"/>
<path d="" fill="#DD4658" transform="translate(0,0)"/>
<path d="" fill="#DD4556" transform="translate(0,0)"/>
<path d="" fill="#DC475A" transform="translate(0,0)"/>
<path d="" fill="#DA4457" transform="translate(0,0)"/>
<path d="" fill="#DC4558" transform="translate(0,0)"/>
<path d="" fill="#DB4458" transform="translate(0,0)"/>
<path d="" fill="#2D312E" transform="translate(0,0)"/>
<path d="" fill="#2B2C2F" transform="translate(0,0)"/>
<path d="" fill="#2A2A2C" transform="translate(0,0)"/>
<path d="" fill="#2B2B28" transform="translate(0,0)"/>
<path d="" fill="#2F2D2D" transform="translate(0,0)"/>
<path d="" fill="#2A292A" transform="translate(0,0)"/>
<path d="" fill="#2A2829" transform="translate(0,0)"/>
<path d="" fill="#2C2C2A" transform="translate(0,0)"/>
<path d="" fill="#2B2B2B" transform="translate(0,0)"/>
<path d="" fill="#2F2C2B" transform="translate(0,0)"/>
<path d="" fill="#2B2929" transform="translate(0,0)"/>
<path d="" fill="#2D2B29" transform="translate(0,0)"/>
<path d="" fill="#302A2A" transform="translate(0,0)"/>
<path d="" fill="#352C2B" transform="translate(0,0)"/>
<path d="" fill="#3E2E30" transform="translate(0,0)"/>
<path d="" fill="#463333" transform="translate(0,0)"/>
<path d="" fill="#2C2B2C" transform="translate(0,0)"/>
<path d="" fill="#2D2D2D" transform="translate(0,0)"/>
<path d="" fill="#2E2D2F" transform="translate(0,0)"/>
<path d="" fill="#2A2B2C" transform="translate(0,0)"/>
<path d="" fill="#2D2C2C" transform="translate(0,0)"/>
<path d="" fill="#2F2C2A" transform="translate(0,0)"/>
<path d="" fill="#2B2C29" transform="translate(0,0)"/>
<path d="" fill="#2A2A2B" transform="translate(0,0)"/>
<path d="" fill="#2E2E2B" transform="translate(0,0)"/>
<path d="" fill="#2C2B2D" transform="translate(0,0)"/>
<path d="" fill="#2E2A2D" transform="translate(0,0)"/>
<path d="" fill="#2C2D2C" transform="translate(0,0)"/>
<path d="" fill="#2D2E2A" transform="translate(0,0)"/>
<path d="" fill="#2C2B2D" transform="translate(0,0)"/>
<path d="" fill="#2E2B2B" transform="translate(0,0)"/>
<path d="" fill="#4C3033" transform="translate(0,0)"/>
<path d="" fill="#523233" transform="translate(0,0)"/>
<path d="" fill="#292928" transform="translate(0,0)"/>
<path d="" fill="#272528" transform="translate(0,0)"/>
<path d="" fill="#292928" transform="translate(0,0)"/>
<path d="" fill="#292928" transform="translate(0,0)"/>
<path d="" fill="#2B2827" transform="translate(0,0)"/>
<path d="" fill="#272824" transform="translate(0,0)"/>
<path d="" fill="#292926" transform="translate(0,0)"/>
<path d="" fill="#2A2A29" transform="translate(0,0)"/>
<path d="" fill="#292B29" transform="translate(0,0)"/>
<path d="" fill="#2E2B2B" transform="translate(0,0)"/>
<path d="" fill="#2E2F2E" transform="translate(0,0)"/>
<path d="" fill="#2B2C2C" transform="translate(0,0)"/>
<path d="" fill="#2A2728" transform="translate(0,0)"/>
<path d="" fill="#33312E" transform="translate(0,0)"/>
<path d="" fill="#2C2D2E" transform="translate(0,0)"/>
<path d="" fill="#292728" transform="translate(0,0)"/>
<path d="" fill="#282525" transform="translate(0,0)"/>
<path d="" fill="#282729" transform="translate(0,0)"/>
<path d="" fill="#2A2929" transform="translate(0,0)"/>
<path d="" fill="#474949" transform="translate(0,0)"/>
<path d="" fill="#474648" transform="translate(0,0)"/>
<path d="" fill="#252726" transform="translate(0,0)"/>
<path d="" fill="#272826" transform="translate(0,0)"/>
<path d="" fill="#282828" transform="translate(0,0)"/>
<path d="" fill="#DB4355" transform="translate(0,0)"/>
<path d="" fill="#242725" transform="translate(0,0)"/>
<path d="" fill="#262628" transform="translate(0,0)"/>
<path d="" fill="#252826" transform="translate(0,0)"/>
<path d="" fill="#444446" transform="translate(0,0)"/>
<path d="" fill="#262624" transform="translate(0,0)"/>
<path d="" fill="#232324" transform="translate(0,0)"/>
<path d="" fill="#DA4053" transform="translate(0,0)"/>
<path d="" fill="#282829" transform="translate(0,0)"/>
<path d="" fill="#DC3E51" transform="translate(0,0)"/>
<path d="" fill="#DD3E53" transform="translate(0,0)"/>
<path d="" fill="#262927" transform="translate(0,0)"/>
<path d="" fill="#282626" transform="translate(0,0)"/>
<path d="" fill="#282626" transform="translate(0,0)"/>
<path d="" fill="#DB3E50" transform="translate(0,0)"/>
<path d="" fill="#282929" transform="translate(0,0)"/>
<path d="" fill="#DD4053" transform="translate(0,0)"/>
<path d="" fill="#272729" transform="translate(0,0)"/>
<path d="" fill="#272525" transform="translate(0,0)"/>
<path d="" fill="#292929" transform="translate(0,0)"/>
<path d="" fill="#222223" transform="translate(0,0)"/>
<path d="" fill="#222323" transform="translate(0,0)"/>
<path d="" fill="#292929" transform="translate(0,0)"/>
<path d="" fill="#DD3D52" transform="translate(0,0)"/>
<path d="" fill="#232625" transform="translate(0,0)"/>
<path d="" fill="#272623" transform="translate(0,0)"/>
<path d="" fill="#282525" transform="translate(0,0)"/>
<path d="" fill="#5A2E33" transform="translate(0,0)"/>
<path d="" fill="#DC4555" transform="translate(0,0)"/>
<path d="" fill="#282929" transform="translate(0,0)"/>
<path d="" fill="#262525" transform="translate(0,0)"/>
<path d="" fill="#252627" transform="translate(0,0)"/>
<path d="" fill="#E14356" transform="translate(0,0)"/>
<path d="" fill="#2A2A2A" transform="translate(0,0)"/>
<path d="" fill="#262727" transform="translate(0,0)"/>
<path d="" fill="#262828" transform="translate(0,0)"/>
<path d="" fill="#292728" transform="translate(0,0)"/>
<path d="" fill="#262726" transform="translate(0,0)"/>
<path d="" fill="#232728" transform="translate(0,0)"/>
<path d="" fill="#D9495B" transform="translate(0,0)"/>
<path d="" fill="#DA5361" transform="translate(0,0)"/>
<path d="" fill="#3F4241" transform="translate(0,0)"/>
<path d="" fill="#282828" transform="translate(0,0)"/>
<path d="" fill="#262826" transform="translate(0,0)"/>
<path d="" fill="#2B2929" transform="translate(0,0)"/>
<path d="" fill="#292626" transform="translate(0,0)"/>
<path d="" fill="#262827" transform="translate(0,0)"/>
<path d="" fill="#D74858" transform="translate(0,0)"/>
<path d="" fill="#DC4155" transform="translate(0,0)"/>
<path d="" fill="#DB4254" transform="translate(0,0)"/>
<path d="" fill="#DD3F55" transform="translate(0,0)"/>
<path d="" fill="#DF4154" transform="translate(0,0)"/>
<path d="" fill="#DC4454" transform="translate(0,0)"/>
<path d="" fill="#E04356" transform="translate(0,0)"/>
<path d="" fill="#2A2929" transform="translate(0,0)"/>
<path d="" fill="#292A29" transform="translate(0,0)"/>
<path d="" fill="#2C2927" transform="translate(0,0)"/>
<path d="" fill="#DC3D51" transform="translate(0,0)"/>
<path d="" fill="#272525" transform="translate(0,0)"/>
<path d="" fill="#DF4256" transform="translate(0,0)"/>
<path d="" fill="#262626" transform="translate(0,0)"/>
<path d="" fill="#E14255" transform="translate(0,0)"/>
<path d="" fill="#DE4354" transform="translate(0,0)"/>
<path d="" fill="#262325" transform="translate(0,0)"/>
<path d="" fill="#DD4558" transform="translate(0,0)"/>
<path d="" fill="#E04657" transform="translate(0,0)"/>
<path d="" fill="#444443" transform="translate(0,0)"/>
<path d="" fill="#282728" transform="translate(0,0)"/>
<path d="" fill="#272625" transform="translate(0,0)"/>
<path d="" fill="#282925" transform="translate(0,0)"/>
<path d="" fill="#2E2C2E" transform="translate(0,0)"/>
<path d="" fill="#2C2C2C" transform="translate(0,0)"/>
<path d="" fill="#2A292A" transform="translate(0,0)"/>
<path d="" fill="#2F2F2F" transform="translate(0,0)"/>
<path d="" fill="#272726" transform="translate(0,0)"/>
<path d="" fill="#272727" transform="translate(0,0)"/>
<path d="" fill="#282825" transform="translate(0,0)"/>
<path d="" fill="#2D2A2B" transform="translate(0,0)"/>
<path d="" fill="#2D2D2D" transform="translate(0,0)"/>
<path d="" fill="#262728" transform="translate(0,0)"/>
<path d="" fill="#2A2628" transform="translate(0,0)"/>
<path d="" fill="#DD4056" transform="translate(0,0)"/>
<path d="" fill="#2B2B27" transform="translate(0,0)"/>
<path d="" fill="#512D2E" transform="translate(0,0)"/>
<path d="" fill="#2E2C2E" transform="translate(0,0)"/>
<path d="" fill="#D94153" transform="translate(0,0)"/>
<path d="" fill="#DA5563" transform="translate(0,0)"/>
<path d="" fill="#313130" transform="translate(0,0)"/>
<path d="" fill="#2A2A28" transform="translate(0,0)"/>
<path d="" fill="#292726" transform="translate(0,0)"/>
<path d="" fill="#DD4356" transform="translate(0,0)"/>
<path d="" fill="#464643" transform="translate(0,0)"/>
<path d="" fill="#343333" transform="translate(0,0)"/>
<path d="" fill="#2C2C2C" transform="translate(0,0)"/>
<path d="" fill="#DE4050" transform="translate(0,0)"/>
<path d="" fill="#DB4257" transform="translate(0,0)"/>
<path d="" fill="#DD4054" transform="translate(0,0)"/>
<path d="" fill="#2B2829" transform="translate(0,0)"/>
<path d="" fill="#383736" transform="translate(0,0)"/>
<path d="" fill="#393739" transform="translate(0,0)"/>
<path d="" fill="#3A3B38" transform="translate(0,0)"/>
<path d="" fill="#393837" transform="translate(0,0)"/>
<path d="" fill="#323432" transform="translate(0,0)"/>
<path d="" fill="#323131" transform="translate(0,0)"/>
<path d="" fill="#31302F" transform="translate(0,0)"/>
<path d="" fill="#313431" transform="translate(0,0)"/>
<path d="" fill="#312F2F" transform="translate(0,0)"/>
<path d="" fill="#2E2F2D" transform="translate(0,0)"/>
<path d="" fill="#5A3136" transform="translate(0,0)"/>
<path d="" fill="#404140" transform="translate(0,0)"/>
<path d="" fill="#3E3E3D" transform="translate(0,0)"/>
<path d="" fill="#383535" transform="translate(0,0)"/>
<path d="" fill="#383635" transform="translate(0,0)"/>
<path d="" fill="#383638" transform="translate(0,0)"/>
<path d="" fill="#333432" transform="translate(0,0)"/>
<path d="" fill="#323334" transform="translate(0,0)"/>
<path d="" fill="#2D2D2F" transform="translate(0,0)"/>
<path d="" fill="#3B3C3A" transform="translate(0,0)"/>
<path d="" fill="#3A3B3A" transform="translate(0,0)"/>
<path d="" fill="#383A38" transform="translate(0,0)"/>
<path d="" fill="#343434" transform="translate(0,0)"/>
<path d="" fill="#593136" transform="translate(0,0)"/>
<path d="" fill="#DF4157" transform="translate(0,0)"/>
<path d="" fill="#DD4055" transform="translate(0,0)"/>
<path d="" fill="#40403F" transform="translate(0,0)"/>
<path d="" fill="#41423E" transform="translate(0,0)"/>
<path d="" fill="#3B3B3B" transform="translate(0,0)"/>
<path d="" fill="#323635" transform="translate(0,0)"/>
<path d="" fill="#292929" transform="translate(0,0)"/>
<path d="" fill="#532F33" transform="translate(0,0)"/>
<path d="" fill="#DE4154" transform="translate(0,0)"/>
<path d="" fill="#DD4051" transform="translate(0,0)"/>
<path d="" fill="#2C2A2B" transform="translate(0,0)"/>
<path d="" fill="#DF4557" transform="translate(0,0)"/>
<path d="" fill="#DC4252" transform="translate(0,0)"/>
<path d="" fill="#DE4052" transform="translate(0,0)"/>
<path d="" fill="#2A2C29" transform="translate(0,0)"/>
<path d="" fill="#523136" transform="translate(0,0)"/>
<path d="" fill="#DD4355" transform="translate(0,0)"/>
<path d="" fill="#DF4253" transform="translate(0,0)"/>
<path d="" fill="#DE4050" transform="translate(0,0)"/>
<path d="" fill="#DF4557" transform="translate(0,0)"/>
<path d="" fill="#2B2B2C" transform="translate(0,0)"/>
<path d="" fill="#2A2B27" transform="translate(0,0)"/>
<path d="" fill="#2B2C2B" transform="translate(0,0)"/>
<path d="" fill="#2C2929" transform="translate(0,0)"/>
<path d="" fill="#463133" transform="translate(0,0)"/>
<path d="" fill="#DB4055" transform="translate(0,0)"/>
<path d="" fill="#D93D4F" transform="translate(0,0)"/>
<path d="" fill="#2A2A29" transform="translate(0,0)"/>
<path d="" fill="#483435" transform="translate(0,0)"/>
<path d="" fill="#E04154" transform="translate(0,0)"/>
<path d="" fill="#2B2A2C" transform="translate(0,0)"/>
<path d="" fill="#E03E52" transform="translate(0,0)"/>
<path d="" fill="#2F2A29" transform="translate(0,0)"/>
<path d="" fill="#323030" transform="translate(0,0)"/>
<path d="" fill="#DC4053" transform="translate(0,0)"/>
<path d="" fill="#DD4658" transform="translate(0,0)"/>
<path d="" fill="#353734" transform="translate(0,0)"/>
<path d="" fill="#DC4056" transform="translate(0,0)"/>
<path d="" fill="#DF4457" transform="translate(0,0)"/>
<path d="" fill="#DE4253" transform="translate(0,0)"/>
<path d="" fill="#322D2F" transform="translate(0,0)"/>
<path d="" fill="#DE4153" transform="translate(0,0)"/>
<path d="" fill="#393937" transform="translate(0,0)"/>
<path d="" fill="#CC4A59" transform="translate(0,0)"/>
<path d="" fill="#E14555" transform="translate(0,0)"/>
<path d="" fill="#D94254" transform="translate(0,0)"/>
<path d="" fill="#DB4255" transform="translate(0,0)"/>
<path d="" fill="#DC4254" transform="translate(0,0)"/>
<path d="" fill="#DA4154" transform="translate(0,0)"/>
<path d="" fill="#DC4153" transform="translate(0,0)"/>
<path d="" fill="#D14E5C" transform="translate(0,0)"/>
<path d="" fill="#DB3F50" transform="translate(0,0)"/>
<path d="" fill="#403938" transform="translate(0,0)"/>
<path d="" fill="#423B3B" transform="translate(0,0)"/>
<path d="" fill="#65484B" transform="translate(0,0)"/>
<path d="" fill="#DF3C50" transform="translate(0,0)"/>
<path d="" fill="#D9515F" transform="translate(0,0)"/>
<path d="" fill="#DC4152" transform="translate(0,0)"/>
<path d="" fill="#E13E52" transform="translate(0,0)"/>
<path d="" fill="#453F3F" transform="translate(0,0)"/>
<path d="" fill="#D95362" transform="translate(0,0)"/>
<path d="" fill="#E04154" transform="translate(0,0)"/>
<path d="" fill="#DC4354" transform="translate(0,0)"/>
<path d="" fill="#D54F60" transform="translate(0,0)"/>
<path d="" fill="#DA5562" transform="translate(0,0)"/>
<path d="" fill="#E04256" transform="translate(0,0)"/>
<path d="" fill="#D74153" transform="translate(0,0)"/>
<path d="" fill="#D74C5B" transform="translate(0,0)"/>
<path d="" fill="#D04C5B" transform="translate(0,0)"/>
<path d="" fill="#D65A66" transform="translate(0,0)"/>
</svg>
